<?xml version="1.0" encoding="UTF-8"?>
<svg width="90px" height="82px" viewBox="0 0 90 82" version="1.1" xmlns="http://www.w3.org/2000/svg" xmlns:xlink="http://www.w3.org/1999/xlink">
    <!-- Generator: Sketch 48.2 (47327) - http://www.bohemiancoding.com/sketch -->
    <title>dobele-piuac-ikona-aktualitates</title>
    <desc>Created with Sketch.</desc>
    <defs></defs>
    <g id="Page-1" stroke="none" stroke-width="1" fill="none" fill-rule="evenodd">
        <g id="Hero" transform="translate(-344.000000, -283.000000)">
            <g id="Izvelnes">
                <g id="Tālmācība">
                    <g id="Group-3" transform="translate(344.000000, 283.000000)">
                        <g id="dobele-piuac-ikona-aktualitates" transform="translate(0.666667, 0.000000)">
                            <path d="M68.6413333,81.7066667 L66.4533333,80.76 C82.6510281,70.9298935 90.3723352,51.555071 85.3757634,33.2785676 C80.3791915,15.0020641 63.8748523,2.25023613 44.9289583,2.02795565 C25.9830643,1.80567516 9.18409054,14.1667759 3.76009923,32.3210213 C-1.66389209,50.4752667 5.60072658,70.0259099 21.5633333,80.2333333 L19.3853333,81.1666667 C3.21893074,70.1346987 -3.8198521,49.8202038 2.05537735,31.1510162 C7.93060681,12.4818285 25.3346588,-0.14045901 44.9053219,0.0740967409 C64.475985,0.288652492 81.5991275,13.2894662 87.0636485,32.082973 C92.5281695,50.8764799 85.0457111,71.0317765 68.6413333,81.7066667 Z" id="Rectangle_905_copy_14" fill="#1E4A62"></path>
                            <path d="M25.4453333,67.1933333 C22.7051198,67.1889216 20.4857661,64.9668835 20.4846667,62.2266667 L20.4846667,19.6466667 L60.5046667,19.6466667 L60.5046667,27.1733333 L68.0293333,27.1733333 L68.0293333,62.2266667 C68.0282339,64.9668835 65.8088802,67.1889216 63.0686667,67.1933333 L25.4453333,67.1933333 Z M60.5046667,62.2266667 C60.5046667,63.6427248 61.6526086,64.7906667 63.0686667,64.7906667 C64.4847248,64.7906667 65.6326667,63.6427248 65.6326667,62.2266667 L65.6326667,29.5666667 L60.5046667,29.5666667 L60.5046667,62.2266667 Z M22.8813333,62.2266667 C22.8809796,62.9070354 23.1509159,63.5596785 23.6317592,64.0410219 C24.1126025,64.5223653 24.7649646,64.7929798 25.4453333,64.7933333 L58.712,64.7933333 L58.3893333,63.88 C58.2001814,63.3493313 58.1038836,62.7900378 58.1046667,62.2266667 L58.1046667,22.0466667 L22.8793333,22.0466667 L22.8793333,62.2266667 L22.8813333,62.2266667 Z M43.0586667,59.6666667 L43.0586667,42.22 L52.98,42.22 L52.98,59.6666667 L43.0586667,59.6666667 Z M45.4553333,57.2666667 L50.5833333,57.2666667 L50.5833333,44.62 L45.4553333,44.62 L45.4553333,57.2666667 Z M28.0093333,52.14 L28.0093333,49.7466667 L37.9306667,49.7466667 L37.9306667,52.14 L28.0126667,52.14 L28.0093333,52.14 Z M28.0093333,59.6666667 L28.0093333,57.2666667 L37.9306667,57.2666667 L37.9306667,59.6666667 L28.0126667,59.6666667 L28.0093333,59.6666667 Z" id="ikona-bak_copy_10" fill="#1E4A62"></path>
                            <path d="M28.0126667,37.0933333 L28.0126667,27.1733333 L51.726,27.1733333 L51.726,37.0933333 L28.0126667,37.0933333 Z M30.4093333,34.7 L49.3326667,34.7 L49.3326667,29.5666667 L30.406,29.5666667 L30.406,34.7 L30.4093333,34.7 Z" id="ikona-bak_copy_13" fill="#89AF4C"></path>
                            <polygon id="ikona-bak_copy_11" fill="#89AF4C" points="28.0126667 44.62 28.0126667 42.22 37.934 42.22 37.934 44.62"></polygon>
                        </g>
                    </g>
                </g>
            </g>
        </g>
    </g>
</svg>