<?xml version="1.0" encoding="UTF-8"?>
<svg width="90px" height="82px" viewBox="0 0 90 82" version="1.1" xmlns="http://www.w3.org/2000/svg" xmlns:xlink="http://www.w3.org/1999/xlink">
    <!-- Generator: Sketch 48.2 (47327) - http://www.bohemiancoding.com/sketch -->
    <title>dobele-piuac-ikona-pakalpojumi</title>
    <desc>Created with Sketch.</desc>
    <defs></defs>
    <g id="Page-1" stroke="none" stroke-width="1" fill="none" fill-rule="evenodd">
        <g id="Hero" transform="translate(-344.000000, -283.000000)">
            <g id="Izvelnes">
                <g id="Tālmācība">
                    <g id="Group-3" transform="translate(344.000000, 283.000000)">
                        <g id="dobele-piuac-ikona-pakalpojumi">
                            <path d="M69.3,81.71 L67.1113333,80.77 C83.314372,70.9420787 91.0414089,51.5653218 86.0475282,33.2845217 C81.0536476,15.0037215 64.5484105,2.24664668 45.5991148,2.02150877 C26.649819,1.79637085 9.8461484,14.1577002 4.41934776,32.3146915 C-1.00745287,50.4716828 6.25703465,70.0265551 22.222,80.2366667 L20.044,81.1766667 C3.87314084,70.1465473 -3.17045659,49.8305427 2.70237542,31.1578336 C8.57520743,12.4851245 25.9797577,-0.141590579 45.5530891,0.070345228 C65.1264206,0.282281035 82.2534837,13.282897 87.720618,32.0783928 C93.1877524,50.8738886 85.7059033,71.0326147 69.3,81.71 Z" id="Rectangle_905_copy_12" fill="#1E4A62"></path>
                            <path d="M74.2113333,43.2166667 L67.278,46.6166667 L64.252,49.4033333 C61.7864812,51.6757335 59.0038558,53.5778267 55.9913333,55.05 L42.4493333,61.6766667 C41.9914125,61.9018888 41.4876411,62.0182491 40.9773333,62.0166667 C39.6964589,62.0204302 38.5256494,61.2932032 37.9613333,60.1433333 C37.7858237,59.7742906 37.677249,59.3770109 37.6406667,58.97 L36.8813333,59.3366667 C36.4249597,59.5669323 35.920502,59.6857358 35.4093333,59.6833333 C34.1292715,59.6842388 32.9598513,58.9578748 32.3933333,57.81 C32.1510645,57.3289387 32.0326007,56.7950495 32.0486667,56.2566667 C30.774447,56.248707 29.6147935,55.5193813 29.0557029,54.3743412 C28.4966123,53.229301 28.6346632,51.8663431 29.412,50.8566667 C28.2233979,49.9951773 27.7403085,48.4562272 28.2233333,47.07 C28.5063953,46.2255223 29.1180923,45.5309037 29.92,45.1433333 L35.0833333,42.6166667 C35.4299535,42.4394662 35.8453018,42.4635707 36.1690966,42.6796784 C36.4928913,42.8957861 36.6744998,43.2701035 36.6438399,43.6581829 C36.61318,44.0462622 36.3750461,44.3874182 36.0213333,44.55 L30.8586667,47.0766667 C30.5730743,47.2185476 30.3553897,47.467878 30.2533333,47.77 C30.1479592,48.0698282 30.1693862,48.3996586 30.3126667,48.6833333 C30.6064332,49.2812301 31.3285921,49.5287082 31.9273333,49.2366667 L34.8833333,47.79 L41.6486667,44.4766667 C42.1800071,44.2324395 42.809103,44.4578932 43.0643657,44.9840211 C43.3196285,45.5101489 43.1073527,46.1438129 42.5866667,46.41 L36.344,49.4766667 L35.584,49.8433333 L32.866,51.1766667 L31.5366667,51.83 C31.247493,51.9686072 31.0258263,52.2171894 30.921119,52.5202896 C30.8164116,52.8233898 30.8373754,53.1557897 30.9793333,53.4433333 C31.1192199,53.7275304 31.3673221,53.943689 31.668,54.0433333 C31.9669045,54.1529081 32.2978684,54.1335958 32.582,53.99 L36.4273333,52.0966667 L36.736,51.9433333 L44.7953333,47.99 C45.3276667,47.7399337 45.9621283,47.9642383 46.2190059,48.4933185 C46.4758835,49.0223988 46.2597399,49.6596868 45.734,49.9233333 L37.6866667,53.8633333 L34.8733333,55.2433333 C34.5897173,55.3843166 34.3726428,55.6308289 34.2686667,55.93 C34.1634142,56.2320988 34.1848145,56.5639237 34.328,56.85 C34.4673237,57.1388181 34.7164469,57.3598596 35.0197954,57.4638147 C35.3231439,57.5677698 35.6554801,57.5459898 35.9426667,57.4033333 L39.6693333,55.5766667 L47.076,51.95 C47.6117162,51.6909785 48.2559785,51.9152838 48.515,52.451 C48.7740215,52.9867162 48.5497162,53.6309785 48.014,53.89 L40.608,57.51 L40.442,57.59 C39.8418506,57.8817904 39.5918762,58.6048506 39.8836667,59.205 C40.1754571,59.8051494 40.8985172,60.0551238 41.4986667,59.7633333 L55.0413333,53.1366667 C57.8648771,51.7525492 60.474882,49.9698878 62.7913333,47.8433333 L65.3433333,45.49 L57.218,28.91 C56.9593225,28.3749229 57.1815782,27.7313944 57.7153333,27.47 L64.79,24.0166667 C65.3249425,23.7605954 65.9662952,23.983804 66.2266667,24.5166667 L74.7073333,41.7833333 C74.8332415,42.0389249 74.8516612,42.3342657 74.7584864,42.6035209 C74.6653116,42.872776 74.4682875,43.0935633 74.2113333,43.2166667 Z M64.7666667,26.4233333 L59.6273333,28.9433333 L67.1466667,44.3166667 L72.2853333,41.7966667 L64.7666667,26.4233333 Z M50.0853333,36.5433333 L44.992,34.8033333 C44.1772417,36.8699122 42.6889511,38.6010835 40.768,39.7166667 C39.5415539,40.3716404 38.1696178,40.7064268 36.7793333,40.69 C35.4108113,40.6674505 34.0553432,40.4196913 32.7673333,39.9566667 C32.2175943,39.7551912 31.9300723,39.1509323 32.1204965,38.5972681 C32.3109206,38.043604 32.9092995,37.7440368 33.4666667,37.9233333 C35.948,38.77 38.0606667,38.73 39.758,37.8166667 C42.452,36.37 43.2913333,33.21 43.306,33.1766667 C43.3878385,32.8888881 43.5793437,32.6447189 43.8393333,32.4966667 C44.1024057,32.3552276 44.4128562,32.3310304 44.6946667,32.43 L50.7966667,34.5166667 C51.9366667,34.9033333 52.8033333,34.9033333 53.3846667,34.5033333 C53.8764079,34.090037 54.2114999,33.5205688 54.334,32.89 L40.6446667,28.1766667 C39.70122,27.8543486 38.6684866,27.9190742 37.7726667,28.3566667 L37.0486667,28.7166667 C35.6190957,29.4030118 33.976182,29.496468 32.478,28.9766667 L32.078,28.8366667 L26.1833333,46.0033333 C26.0308918,46.4357095 25.6217941,46.7244844 25.1633333,46.7233333 C25.0459804,46.7218369 24.9296219,46.7015811 24.8186667,46.6633333 L17.3746667,44.1166667 C17.1043916,44.0247202 16.8819934,43.8287025 16.7568292,43.5721158 C16.631665,43.3155292 16.6140883,43.0195985 16.708,42.75 L22.958,24.53 C23.1531324,23.9711754 23.7619299,23.6737658 24.3226667,23.8633333 L31.7786667,26.4166667 C31.8547084,26.4413623 31.9266185,26.4773174 31.992,26.5233333 L33.2026667,26.95 C34.1531342,27.2776835 35.1947247,27.2153559 36.0993333,26.7766667 L36.8233333,26.4233333 C38.2316389,25.7419347 39.8507634,25.6390344 41.334,26.1366667 L55.8673333,31.1433333 C56.309655,31.2951192 56.6027956,31.7158178 56.592,32.1833333 C56.5793333,32.3033333 56.486,34.95 54.5986667,36.2566667 C53.424,37.0766667 51.904,37.17 50.088,36.5433333 L50.0853333,36.5433333 Z M24.6333333,26.25 L19.0953333,42.43 L24.5086667,44.2833333 L30.0473333,28.0966667 L24.6333333,26.25 Z" id="ikona-bak_copy_8" fill="#1E4A62"></path>
                            <path d="M24.1506667,31.2366667 C24.4857949,30.3164905 25.5033738,29.8421641 26.4235894,30.177184 C27.3438051,30.5122038 27.8182513,31.5297269 27.4833398,32.449982 C27.1484283,33.370237 26.1309612,33.8448031 25.2106667,33.51 C24.2908723,33.1742053 23.8166195,32.1570971 24.1506667,31.2366667 Z" id="ikona-bak_copy_4" fill="#89AF4C"></path>
                            <circle id="ikona-bak_copy_9" fill="#1E4A62" fill-rule="nonzero" cx="64.3126667" cy="31.8233333" r="1.68733333"></circle>
                        </g>
                    </g>
                </g>
            </g>
        </g>
    </g>
</svg>