<?xml version="1.0" encoding="UTF-8"?>
<svg width="90px" height="82px" viewBox="0 0 90 82" version="1.1" xmlns="http://www.w3.org/2000/svg" xmlns:xlink="http://www.w3.org/1999/xlink">
    <!-- Generator: Sketch 48.2 (47327) - http://www.bohemiancoding.com/sketch -->
    <title>dobele-piuac-ikona-par-mums</title>
    <desc>Created with Sketch.</desc>
    <defs></defs>
    <g id="Page-1" stroke="none" stroke-width="1" fill="none" fill-rule="evenodd">
        <g id="Hero" transform="translate(-344.000000, -283.000000)">
            <g id="Izvelnes">
                <g id="Tālmācība">
                    <g id="Group-3" transform="translate(344.000000, 283.000000)">
                        <g id="dobele-piuac-ikona-par-mums">
                            <path d="M69.3006667,81.7026667 L67.1126667,80.756 C83.3111942,70.9258218 91.0331013,51.5503207 86.0365108,33.2730458 C81.0399203,14.9957708 64.5349688,2.24334084 45.5883257,2.02105157 C26.6416826,1.7987623 9.84208267,14.1604505 4.41805455,32.3154668 C-1.00597357,50.470483 6.25922902,70.0218187 22.2226667,80.2293333 L20.0446667,81.1626667 C3.87826407,70.1306987 -3.16051877,49.8162038 2.71471069,31.1470162 C8.58994014,12.4778285 25.9939921,-0.14445901 45.5646552,0.0700967409 C65.1353183,0.284652492 82.2584609,13.2854662 87.7229819,32.078973 C93.1875029,50.8724799 85.7050444,71.0277765 69.3006667,81.7026667 Z" id="Rectangle_905_copy_13" fill="#1E4A62"></path>
                            <path d="M45.084,25.6893333 C48.2782675,25.6890639 51.158094,27.6132149 52.3803624,30.5643849 C53.6026309,33.5155549 52.926579,36.9124228 50.6675094,39.1707295 C48.4084398,41.4290362 45.0113437,42.1039406 42.0605867,40.8806754 C39.1098297,39.6574101 37.1866517,36.7769339 37.188,33.5826667 C37.1881768,31.4888166 38.0202163,29.480815 39.5010419,28.0004895 C40.9818674,26.520164 42.99015,25.6888028 45.084,25.6893333 Z M45.084,27.6693333 C47.4773109,27.6696034 49.6347481,29.1116848 50.55013,31.3230222 C51.4655119,33.5343596 50.9585312,36.0793753 49.2656327,37.7711294 C47.5727343,39.4628834 45.0273763,39.968143 42.8166584,39.0512661 C40.6059406,38.1343891 39.1653183,35.9759772 39.1666667,33.5826667 C39.1670202,32.0137684 39.7906929,30.5092881 40.9004466,29.4002847 C42.0102002,28.2912812 43.5151019,27.6686259 45.084,27.6693333 Z" id="Ellipse_940_copy" fill="#89AF4C"></path>
                            <path d="M49.244,41.556 L51.348,41.556 C54.1926667,41.556 56.5066667,44.096 56.5066667,47.216 L56.5066667,59.676 C56.5050769,59.8425791 56.4826812,60.0083071 56.44,60.1693333 L56.4306667,60.2026667 C56.3675519,60.7781287 55.8822438,61.2143607 55.3033333,61.216 L35.0033333,61.216 C34.4142674,61.214047 33.9240584,60.7628812 33.8733333,60.176 C33.8218047,60.0142927 33.7950571,59.8457155 33.794,59.676 L33.794,47.216 C33.794,44.096 36.114,41.556 38.9653333,41.556 L49.2466667,41.556 L49.244,41.556 Z M38.9626667,43.8293333 C37.3626667,43.8293333 36.0606667,45.3493333 36.0606667,47.216 L36.0606667,58.9426667 L54.2373333,58.9426667 L54.2373333,47.216 C54.2373333,45.3493333 52.9413333,43.8293333 51.348,43.8293333 L38.9626667,43.8293333 Z M32.4726667,60.236 C32.3959441,60.7978676 31.9157481,61.2165439 31.3486667,61.216 L15.0726667,61.216 C14.5055853,61.2165439 14.0253892,60.7978676 13.9486667,60.236 L13.9446667,60.216 C13.9004467,60.0643887 13.878,59.9072618 13.878,59.7493333 L13.878,49.7626667 C13.878,47.136 15.8373333,44.996 18.246,44.996 L19.106,44.996 C16.4343995,43.1921157 15.2540573,39.8551137 16.1972801,36.7726181 C17.1405028,33.6901225 19.9860898,31.5850275 23.2096667,31.5850275 C26.4332436,31.5850275 29.2788305,33.6901225 30.2220533,36.7726181 C31.165276,39.8551137 29.9849339,43.1921157 27.3133333,44.996 L28.176,44.996 C30.5866667,44.996 32.5473333,47.136 32.5473333,49.7626667 L32.5473333,59.7493333 C32.5473333,59.9072618 32.5248866,60.0643887 32.4806667,60.216 L32.4726667,60.236 Z M28.2686667,38.916 C28.2602037,36.1256843 25.993685,33.8693021 23.2033594,33.8733461 C20.4130337,33.8773901 18.1530649,36.1403326 18.15269,38.9306611 C18.152315,41.7209897 20.4116755,43.9845394 23.202,43.9893333 C26.0017785,43.9867572 28.269772,41.7157795 28.2686667,38.916 Z M30.276,49.7626667 C30.276,48.4093333 29.3133333,47.2693333 28.174,47.2693333 L18.244,47.2693333 C17.0866667,47.2693333 16.1453333,48.3893333 16.1453333,49.7626667 L16.1453333,58.9426667 L30.2786667,58.9426667 L30.2786667,49.7626667 L30.276,49.7626667 Z M62.136,44.996 L62.9966667,44.996 C60.3250661,43.1921157 59.144724,39.8551137 60.0879467,36.7726181 C61.0311695,33.6901225 63.8767564,31.5850275 67.1003333,31.5850275 C70.3239102,31.5850275 73.1694972,33.6901225 74.1127199,36.7726181 C75.0559427,39.8551137 73.8756005,43.1921157 71.204,44.996 L72.0666667,44.996 C73.1833596,45.0019123 74.2503065,45.4586944 75.0253333,46.2626667 C75.9378606,47.2001026 76.441337,48.4611912 76.4253333,49.7693333 L76.4253333,59.7493333 C76.4232583,59.8886449 76.4055927,60.0272862 76.3726667,60.1626667 C76.3306002,60.7571488 75.8353001,61.2174865 75.2393333,61.216 L58.9646667,61.216 C58.3975853,61.2165439 57.9173892,60.7978676 57.8406667,60.236 L57.8366667,60.216 C57.7928034,60.0643118 57.7703639,59.9072357 57.77,59.7493333 L57.77,49.7626667 C57.768,47.136 59.7253333,44.996 62.136,44.996 Z M72.1613333,38.916 C72.1532382,36.1251411 69.8864476,33.8680897 67.0955797,33.8720114 C64.3047118,33.875933 62.0442732,36.1393458 62.0440213,38.9302165 C62.0437694,41.7210872 64.3037995,43.984908 67.0946667,43.9893333 C69.8942926,43.9863896 72.1620709,41.7156273 72.1613333,38.916 Z M60.0373333,58.9426667 L74.156,58.9426667 L74.156,49.7626667 C74.1701081,49.0564284 73.9040572,48.3733247 73.416,47.8626667 C73.063123,47.4931762 72.5774889,47.2796316 72.0666667,47.2693333 L62.1333333,47.2693333 C60.976,47.2693333 60.0346667,48.3893333 60.0346667,49.7626667 L60.0346667,58.9426667 L60.0373333,58.9426667 Z" id="ikonas-samazinatas-par_23_copy_9" fill="#1E4A62"></path>
                        </g>
                    </g>
                </g>
            </g>
        </g>
    </g>
</svg>