<?xml version="1.0" encoding="UTF-8"?>
<svg width="90px" height="82px" viewBox="0 0 90 82" version="1.1" xmlns="http://www.w3.org/2000/svg" xmlns:xlink="http://www.w3.org/1999/xlink">
    <!-- Generator: Sketch 48.2 (47327) - http://www.bohemiancoding.com/sketch -->
    <title>dobele-piuac-ikona-talmaciba-1</title>
    <desc>Created with Sketch.</desc>
    <defs></defs>
    <g id="Page-1" stroke="none" stroke-width="1" fill="none" fill-rule="evenodd">
        <g id="Hero" transform="translate(-344.000000, -283.000000)">
            <g id="Izvelnes">
                <g id="Tālmācība">
                    <g id="Group-3" transform="translate(344.000000, 283.000000)">
                        <g id="dobele-piuac-ikona-talmaciba-1">
                            <path d="M69.308,81.6993333 L67.12,80.7573333 C83.3188159,70.9276336 91.0412944,51.5523626 86.0452452,33.2749415 C81.0491959,14.9975203 64.5446242,2.24460242 45.5979894,2.02175049 C26.6513547,1.79889856 9.85138871,14.1600857 4.42681994,32.3149386 C-0.997748834,50.4697915 6.26686917,70.0213421 22.23,80.2293333 L20.052,81.1626667 C3.88273773,70.1315477 -3.158891,49.8157711 2.71516899,31.1442407 C8.58922897,12.4727103 25.994002,-0.152232849 45.5665632,0.0610191646 C65.1391244,0.274271178 82.2646892,13.2754382 87.7305333,32.070522 C93.1963773,50.8656059 85.7137734,71.0231343 69.308,81.6993333 Z" id="Rectangle_905_copy_10" fill="#1E4A62"></path>
                            <path d="M44.8633333,60.6013333 C44.2432161,60.6031619 43.740863,61.1052173 43.7386667,61.7253333 L43.7386667,64.618 L34.0606667,64.618 C33.4503782,64.6328619 32.96338,65.131864 32.96338,65.7423333 C32.96338,66.3528027 33.4503782,66.8518048 34.0606667,66.8666667 L55.6653333,66.8666667 C56.0735461,66.8766076 56.4550774,66.6645116 56.6621075,66.3125528 C56.8691376,65.960594 56.8691376,65.5240727 56.6621075,65.1721139 C56.4550774,64.8201551 56.0735461,64.6080591 55.6653333,64.618 L45.9873333,64.618 L45.9873333,61.7253333 C45.9884011,61.426904 45.8703229,61.1403894 45.6593001,60.9293666 C45.4482773,60.7183438 45.1617627,60.6002656 44.8633333,60.6013333 Z M20.146,47.1793333 C19.9794426,47.0864771 19.7926529,47.0358882 19.602,47.032 C18.9817749,47.0341942 18.4795275,47.5364416 18.4773333,48.1566667 L18.4773333,54.842 C18.4908089,56.329281 19.6966739,57.5297997 21.184,57.5366667 L68.5326667,57.5366667 C69.2505735,57.5368436 69.9391276,57.2517345 70.4467644,56.7440977 C70.9544012,56.2364609 71.2395102,55.5479068 71.2393333,54.83 L71.2393333,22.2413333 C71.2395102,21.5234265 70.9544012,20.8348724 70.4467644,20.3272356 C69.9391276,19.8195988 69.2505735,19.5344898 68.5326667,19.5346667 L55.2793333,19.5346667 C54.8711206,19.5247258 54.4895893,19.7368217 54.2825592,20.0887806 C54.0755291,20.4407394 54.0755291,20.8772606 54.2825592,21.2292194 C54.4895893,21.5811783 54.8711206,21.7932742 55.2793333,21.7833333 L68.5286667,21.7833333 C68.7863995,21.7833333 68.9953333,21.9922671 68.9953333,22.25 L68.9953333,54.85 C68.9953333,55.1077329 68.7863995,55.3166667 68.5286667,55.3166667 L21.1826667,55.3166667 C20.9249338,55.3166667 20.716,55.1077329 20.716,54.85 L20.716,49.4246667 L65.3826667,49.4246667 C65.9933201,49.4098003 66.4806118,48.9105011 66.4806118,48.2996667 C66.4806118,47.6888323 65.9933201,47.189533 65.3826667,47.1746667 L20.146,47.1746667 L20.146,47.1793333 Z M19.602,44.7326667 C20.2221172,44.7308381 20.7244704,44.2287827 20.7266667,43.6086667 L20.7266667,22.2286667 C20.7266667,21.9709338 20.9356005,21.762 21.1933333,21.762 L34.4793333,21.762 C35.1004696,21.762 35.604,21.2584696 35.604,20.6373333 C35.604,20.0161971 35.1004696,19.5126667 34.4793333,19.5126667 L21.1826667,19.5126667 C20.4648211,19.5123129 19.7762653,19.7972735 19.2686093,20.3048045 C18.7609533,20.8123355 18.475823,21.5008211 18.476,22.2186667 L18.476,43.5986667 C18.4741469,44.2225197 18.9768291,44.7305654 19.6006667,44.7353333 L19.602,44.7326667 Z M19.602,44.7326667 L46.0633333,52.5066667 C46.0629649,53.2232717 45.4819383,53.8039995 44.7653331,53.8039993 C44.0487279,53.8039991 43.4677017,53.2232709 43.4673337,52.5066659 C43.4669657,51.7900608 44.0473952,51.2087362 44.764,51.208 C45.1083052,51.207823 45.4385594,51.3445194 45.68202,51.58798 C45.9254806,51.8314406 46.062177,52.1616948 46.062,52.506 L19.602,44.7326667 Z" id="ikona-bak_copy_6" fill="#1E4A62"></path>
                            <path d="M54.008,43.7033333 C53.6892178,43.7047063 53.3886762,43.5548065 53.198,43.2993333 C53.0050746,43.0388026 52.9611598,42.6968224 53.082,42.396 L54.1486667,39.7546667 C53.8226718,39.5283128 53.5669302,39.2148156 53.4106667,38.85 C52.2833333,40.8966667 48.784,42.3106667 44.4026667,42.3106667 C39.0486667,42.3106667 35.0113333,40.1993333 35.0113333,37.4 L35.0113333,33.6 L30.9446667,31.6873333 C30.6047164,31.5349853 30.3859356,31.1971933 30.3859356,30.8246667 C30.3859356,30.45214 30.6047164,30.114348 30.9446667,29.962 L43.9666667,23.836 C44.1026725,23.7720956 44.2510625,23.7388671 44.4013333,23.7386667 C44.5520181,23.7389962 44.7008148,23.7722139 44.8373333,23.836 L57.8593333,29.962 C58.1987928,30.1147684 58.4171037,30.4524155 58.4171037,30.8246667 C58.4171037,31.1969178 58.1987928,31.5345649 57.8593333,31.6873333 L56.43,32.3593333 L56.43,36.2186667 C57.1011675,36.5223936 57.5553773,37.1655949 57.6170945,37.8996977 C57.6788117,38.6338005 57.3383686,39.3438095 56.7273333,39.7553333 L57.7906667,42.3966667 C57.912631,42.6972548 57.8689094,43.0396986 57.6753333,43.3 C57.4846571,43.5554732 57.1841155,43.7053729 56.8653333,43.704 L54.008,43.704 L54.008,43.7033333 Z M36.9953333,37.4 C36.9953333,38.0486667 37.706,38.7706667 38.8966667,39.3333333 C42.4297275,40.747588 46.3716058,40.747588 49.9046667,39.3333333 C51.0953333,38.7733333 51.8066667,38.0513333 51.8066667,37.4 L51.8066667,34.5333333 L44.836,37.8126667 C44.5602316,37.9411528 44.2417684,37.9411528 43.966,37.8126667 L36.9953333,34.5326667 L36.9953333,37.3993333 L36.9953333,37.4 Z M53.7953333,36.7 C53.9803544,36.5002611 54.2010192,36.3367974 54.446,36.218 L54.446,33.2933333 L53.7953333,33.5993333 L53.7953333,36.7 Z M44.4033333,35.8833333 L51.7773333,32.4166667 L44.316,31.7826667 C44.0492985,31.761973 43.802216,31.6345861 43.6306667,31.4293333 C43.4684747,31.2376316 43.3903712,30.9886616 43.414,30.7386667 C43.4681087,30.2362493 43.8967596,29.8582151 44.402,29.8673333 C44.4313333,29.8673333 44.4613333,29.8673333 44.4906667,29.8713333 L55.0286667,30.766 L44.4033333,25.766 L33.6493333,30.8253333 L44.4033333,35.8833333 Z" id="ikona-bak_copy_7" fill="#89AF4C"></path>
                        </g>
                    </g>
                </g>
            </g>
        </g>
    </g>
</svg>