<?xml version="1.0" encoding="UTF-8"?>
<svg width="90px" height="82px" viewBox="0 0 90 82" version="1.1" xmlns="http://www.w3.org/2000/svg" xmlns:xlink="http://www.w3.org/1999/xlink">
    <!-- Generator: Sketch 48.2 (47327) - http://www.bohemiancoding.com/sketch -->
    <title>dobele-piuac-ikona-uznjemejdarbiba</title>
    <desc>Created with Sketch.</desc>
    <defs></defs>
    <g id="Page-1" stroke="none" stroke-width="1" fill="none" fill-rule="evenodd">
        <g id="Hero" transform="translate(-344.000000, -283.000000)">
            <g id="Izvelnes">
                <g id="Tālmācība">
                    <g id="Group-3" transform="translate(344.000000, 283.000000)">
                        <g id="dobele-piuac-ikona-uznjemejdarbiba">
                            <path d="M62.264,55.1333333 C60.2133333,55.0386667 58.1553333,55.124 56.1006667,55.12 C54.0666667,55.116 54.042,55.078 54.408,52.92 L63.5353333,52.92 C63.57,53.21 63.5906667,53.4373333 63.6246667,53.6626667 C63.788,54.7246667 63.4566667,55.19 62.264,55.1333333 Z M56.4053333,44.0806667 C56.3706667,44.23 56.31,44.372 56.2133333,44.664 L49.784,40.3713333 C49.0026667,42.1233333 48.2393333,43.76 47.558,45.4293333 C47.5019387,45.8105121 47.5524707,46.1997699 47.704,46.554 C49.6777778,54.3286667 51.6555556,62.1026667 53.6373333,69.876 C54.104,71.71 54.5186667,73.5573333 54.986,75.5166667 L52.9386667,76.044 C52.1206667,72.942 51.2993333,69.8873333 50.5113333,66.8233333 C48.8793333,60.4806667 47.2604444,54.1348889 45.6546667,47.786 C45.4906667,47.1373333 45.36,46.6526667 44.502,46.646 C43.606,46.636 43.4353333,47.1126667 43.254,47.8226667 C41.3482222,55.3337778 39.4262222,62.8422222 37.488,70.348 C37.006,72.2186667 36.488,74.0813333 35.9546667,76.0506667 L33.9273333,75.51 C34.386,73.588 34.8093333,71.714 35.282,69.852 C37.2273333,62.1893333 39.186,54.5302222 41.158,46.8746667 C41.4158146,46.0241265 41.3313755,45.106538 40.9226667,44.3173333 C40.298,43.0786667 39.7646667,41.794 39.118,40.3633333 L32.6513333,44.704 C32.0286667,42.0773333 31.4366667,39.608 30.858,37.1353333 C29.806,32.646 28.7446667,28.1586667 27.7333333,23.6606667 C27.5999395,23.0282893 27.6060823,22.3744263 27.7513333,21.7446667 C28.1513333,20.0113333 28.6553333,18.304 29.124,16.5666667 L59.794,16.5666667 C60.3206667,18.556 60.8606667,20.5666667 61.3766667,22.576 C61.4012408,22.7671787 61.3818598,22.9614444 61.32,23.144 C59.6835556,30.1248889 58.0453333,37.1044444 56.4053333,44.0826667 L56.4053333,44.0806667 Z M41.4006667,39.8173333 C41.9453333,40.97 42.4766667,42.1326667 42.934,43.3226667 C43.1538376,44.0788511 43.8766871,44.574886 44.6613333,44.508 C45.0893781,44.2942514 45.4700424,43.9965669 45.7806667,43.6326667 C46.4278466,42.3575752 47.0064488,41.0488216 47.514,39.712 C47.6070837,39.3487106 47.5178273,38.9628446 47.2746667,38.6773333 C44.736,36.538 44.6593333,36.5486667 41.9346667,38.448 C41.8748626,38.4972726 41.8113402,38.5418497 41.7446667,38.5813333 C41.162,38.8666667 41.1393333,39.2666667 41.4006667,39.8193333 L41.4006667,39.8173333 Z M52.2846667,23.9786667 L36.618,23.9786667 C39.3266667,27.2866667 41.8433333,30.3613333 44.4533333,33.55 L52.2846667,23.9786667 Z M29.9933333,24.058 C30.904,27.4966667 31.6786667,30.9706667 32.504,34.432 C33.0193333,36.5906667 33.5273333,38.752 34.076,41.0686667 L42.8586667,35.1233333 L30.508,20.0353333 C30.0473333,21.504 29.6253333,22.672 29.9933333,24.06 L29.9933333,24.058 Z M32.3153333,18.798 C33.036,19.682 33.5766667,20.4353333 34.2186667,21.09 C34.5317022,21.4025015 34.9468018,21.5918286 35.388,21.6233333 C41.4324444,21.6566667 47.4791111,21.6604444 53.528,21.6346667 C53.8650559,21.6538833 54.1977036,21.550656 54.4646667,21.344 C55.1666667,20.5846667 55.7913333,19.7546667 56.572,18.7966667 L32.3153333,18.7966667 L32.3153333,18.798 Z M58.4206667,19.998 L46.0553333,35.1333333 C49.0273333,37.1373333 51.8826667,39.0666667 54.8366667,41.0553333 C56.23,35.1886667 57.5333333,29.5406667 58.9366667,23.9146667 C59.276,22.5573333 58.7806667,21.45 58.4206667,20 L58.4206667,19.998 Z" id="ikona-bak_copy_2" fill="#1E4A62"></path>
                            <path d="M69.3,81.69 L67.112,80.748 C83.3113871,70.9183794 91.0343381,51.5427373 86.038348,33.2648362 C81.042358,14.9869352 64.537438,2.23361815 45.590356,2.01075765 C26.643274,1.78789714 9.84294616,14.1494692 4.41841894,32.3048014 C-1.00610828,50.4601337 6.25896642,70.0120688 22.2226667,80.22 L20.0446667,81.1533333 C3.87524537,70.122316 -3.16654871,49.8064968 2.70745206,31.1348701 C8.58145282,12.4632435 25.9862757,-0.161791842 45.5589109,0.0514638642 C65.1315462,0.264719571 82.257155,13.2659848 87.7229322,32.0611652 C93.1887095,50.8563456 85.7059334,71.0139109 69.3,81.69 Z" id="Rectangle_905_copy_8" fill="#1E4A62"></path>
                            <polygon id="Polygon_886" fill="#89AF4C" points="63.7733333 53.1746667 54.028 53.114 59.0013333 48.7406667"></polygon>
                        </g>
                    </g>
                </g>
            </g>
        </g>
    </g>
</svg>