<?xml version="1.0" encoding="UTF-8"?>
<svg width="90px" height="82px" viewBox="0 0 90 82" version="1.1" xmlns="http://www.w3.org/2000/svg" xmlns:xlink="http://www.w3.org/1999/xlink">
    <!-- Generator: Sketch 48.2 (47327) - http://www.bohemiancoding.com/sketch -->
    <title>dobele-piuac-ikona-notikumu-kalendars</title>
    <desc>Created with Sketch.</desc>
    <defs></defs>
    <g id="Page-1" stroke="none" stroke-width="1" fill="none" fill-rule="evenodd">
        <g id="Hero" transform="translate(-344.000000, -283.000000)">
            <g id="Izvelnes">
                <g id="Tālmācība">
                    <g id="Group-3" transform="translate(344.000000, 283.000000)">
                        <g id="dobele-piuac-ikona-notikumu-kalendars">
                            <path d="M69.3,81.6993333 L67.1113333,80.7573333 C83.3107205,70.9277127 91.0336714,51.5520707 86.0376814,33.2741696 C81.0416913,14.9962685 64.5367714,2.24295148 45.5896893,2.02009098 C26.6426073,1.79723048 9.84227949,14.1588025 4.41775227,32.3141348 C-1.00677494,50.469467 6.25829975,70.0214022 22.222,80.2293333 L20.044,81.1626667 C3.87473773,70.1315477 -3.166891,49.8157711 2.70716899,31.1442407 C8.58122897,12.4727103 25.986002,-0.152232849 45.5585632,0.0610191646 C65.1311244,0.274271178 82.2566892,13.2754382 87.7225333,32.070522 C93.1883773,50.8656059 85.7057734,71.0231343 69.3,81.6993333 Z" id="Rectangle_905_copy_11" fill="#1E4A62"></path>
                            <path d="M69.5706667,66.9846667 C69.4631111,67.118 69.3488889,67.2451111 69.228,67.366 C68.2860732,68.3205092 67.0016768,68.8588948 65.6606667,68.8613333 L24.8746667,69.0306667 C22.0842463,69.0398985 19.8130582,66.788395 19.798,63.998 L19.654,29.4886667 C19.6466124,26.6982917 21.8989853,24.4283244 24.6893333,24.414 L29.0446667,24.396 L29.0333333,21.608 C29.0280934,20.362334 29.6878065,19.2084957 30.763965,18.5811248 C31.8401234,17.9537539 33.1692333,17.948163 34.2506316,18.5664581 C35.33203,19.1847532 36.0014268,20.3330006 36.0066667,21.5786667 L36.018,24.368 L54.1433333,24.2926667 L54.1313333,21.5033333 C54.1486789,19.5953655 55.6961574,18.0555749 57.604188,18.047732 C59.5122186,18.039889 61.0723032,19.5669059 61.1053333,21.4746667 L61.1166667,24.264 L65.4746667,24.2453333 C66.8150126,24.2396637 68.102703,24.7667282 69.0544094,25.7105579 C70.0061157,26.6543876 70.5438636,27.9376532 70.5493333,29.278 L70.6933333,63.7873333 C70.7011849,64.9510484 70.3043197,66.081313 69.5706667,66.9846667 Z M57.6146667,20.2693333 C56.941921,20.2726394 56.3988204,20.8199154 56.4006667,21.4926667 L56.412,24.282 L58.85,24.272 L58.8386667,21.4826667 C58.8349941,20.8099208 58.2874189,20.2671176 57.6146667,20.2693333 Z M32.516,20.3733333 C32.1923257,20.3740385 31.882228,20.5034776 31.6541068,20.7330996 C31.4259856,20.9627216 31.2985827,21.2736614 31.3,21.5973333 L31.3113333,24.3866667 L33.7513333,24.3766667 L33.74,21.5866667 C33.7363274,20.9139208 33.1887523,20.3711176 32.516,20.3733333 Z M64.28,26.534 C64.1593333,26.5253333 64.038,26.5173333 63.9153333,26.5173333 L25.4813333,26.6773333 C23.5084579,26.685784 21.9158827,28.2917898 21.924,30.2646667 C21.924,30.3773333 21.9313333,30.4946667 21.9446667,30.6213333 L21.9446667,30.688 C21.9449939,30.6924384 21.9449939,30.6968949 21.9446667,30.7013333 L68.272,30.508 C68.2716979,30.5026709 68.2716979,30.4973291 68.272,30.492 L68.272,30.428 C68.2831589,30.3094482 68.2882766,30.1904054 68.2873333,30.0713333 C68.2766828,28.0993807 66.6719725,26.5080902 64.7,26.514 C64.592,26.514 64.478,26.5206667 64.3406667,26.5333333 L64.28,26.5333333 L64.28,26.534 Z M26.0673333,66.7413333 C26.1886667,66.75 26.31,66.7586667 26.4333333,66.758 L64.0826667,66.6013333 C64.2053333,66.6013333 64.3266667,66.5913333 64.446,66.582 L64.5126667,66.582 C65.5172443,66.6778573 66.5155067,66.3443972 67.2607892,65.6640158 C68.0060716,64.9836344 68.4288531,64.0197986 68.4246667,63.0106667 C68.4252641,62.8926453 68.4192547,62.774683 68.4066667,62.6573333 L68.4066667,62.6093333 C68.416,62.472 68.4246667,62.3506667 68.424,62.2273333 L68.3013333,32.774 L21.9393333,32.9666667 L22.062,62.4206667 C22.062,62.5326667 22.0706667,62.6453333 22.0826667,62.7806667 L22.0826667,62.8473333 C22.0706667,62.974 22.0646667,63.0906667 22.0646667,63.2026667 C22.0753174,65.1748803 23.6804343,66.7662782 25.6526667,66.76 C25.7720222,66.7600284 25.8912971,66.7537976 26.01,66.7413333 L26.0673333,66.7413333 Z M32.5913333,38.4993333 C33.5058809,38.4967063 34.2949734,39.1403683 34.4761672,40.0367907 C34.657361,40.933213 34.1802096,41.8328209 33.3364387,42.1856026 C32.4926678,42.5383843 31.5171935,42.2461212 31.0064115,41.4875001 C30.4956294,40.7288791 30.5917475,39.7151093 31.236,39.066 C31.5938035,38.7033592 32.0818909,38.4990491 32.5913333,38.4986667 L32.5913333,38.4993333 Z M32.6306667,47.9106667 C33.6882314,47.9084696 34.547579,48.763556 34.550639,49.8211187 C34.553699,50.8786813 33.6993142,51.7387263 32.6417544,51.7426493 C31.5841946,51.7465724 30.7234527,50.8928896 30.7186667,49.8353333 C30.7172502,49.3261171 30.9181782,48.8371945 31.2772482,48.4761241 C31.6363183,48.1150536 32.1241171,47.9114125 32.6333333,47.91 L32.6306667,47.9106667 Z M32.67,57.3213333 C33.7283148,57.3183772 34.5894579,58.172364 34.5953333,59.2306667 C34.5993923,60.2894335 33.7447638,61.1512236 32.686,61.156 C32.0008837,61.1588582 31.3662852,60.795994 31.0212518,60.2040949 C30.6762184,59.6121958 30.6731688,58.8811854 31.0132518,58.2864282 C31.3533348,57.6916709 31.9848837,57.3235247 32.67,57.3206667 L32.67,57.3213333 Z M45.1366667,38.4473333 C46.1955671,38.4429243 47.0575514,39.2977553 47.0619666,40.3566557 C47.0663817,41.4155561 46.2115558,42.2775454 45.1526554,42.2819667 C44.093755,42.286388 43.2317608,41.431567 43.2273333,40.3726667 C43.2253849,39.8636884 43.4257545,39.3747925 43.7843439,39.0135775 C44.1429333,38.6523624 44.6303544,38.4484315 45.1393333,38.4466667 L45.1366667,38.4473333 Z M45.2153333,57.2693333 C45.9556176,57.2664766 46.6314575,57.6899037 46.9518271,58.3572809 C47.2721966,59.024658 47.1798942,59.8168262 46.7146667,60.3926667 C46.674054,60.4428532 46.6308858,60.4909168 46.5853333,60.5366667 C45.9739747,61.15365 45.0243018,61.2827778 44.2704008,60.8514298 C43.5164998,60.4200818 43.1465741,59.5359395 43.3686661,58.6962354 C43.5907581,57.8565313 44.3494248,57.2708886 45.218,57.2686667 L45.2153333,57.2693333 Z M57.6873333,38.3946667 C58.7457565,38.3920787 59.6067917,39.2462567 59.6126667,40.3046667 C59.6153605,41.0802705 59.1505063,41.7811017 58.4349213,42.0802786 C57.7193364,42.3794555 56.8939885,42.2180413 56.3438362,41.6713227 C55.793684,41.1246042 55.6271056,40.300283 55.9217965,39.582839 C56.2164874,38.865395 56.9143945,38.3961621 57.69,38.394 L57.6873333,38.3946667 Z M57.7266667,47.806 C58.7852827,47.8023092 59.6468568,48.6567234 59.652,49.7153333 C59.6549654,50.1567328 59.5043674,50.5854305 59.226,50.928 C59.1853333,50.978 59.142,51.0266667 59.096,51.0733333 C58.4852116,51.691131 57.5353587,51.8210472 56.781108,51.3899529 C56.0268573,50.9588586 55.6567181,50.0744967 55.8790397,49.2346697 C56.1013612,48.3948426 56.8605789,47.8094475 57.7293333,47.808 L57.7266667,47.806 Z M57.7653333,57.2166667 C58.5057332,57.2132181 59.18195,57.6363843 59.5025421,58.3037857 C59.8231341,58.9711872 59.7307995,59.7635337 59.2653333,60.3393333 C59.2235784,60.3901781 59.1790671,60.4386954 59.132,60.4846667 C58.5203053,61.1013879 57.5705005,61.230028 56.8167965,60.7982342 C56.0630926,60.3664404 55.6936666,59.4820187 55.9162995,58.6424057 C56.1389325,57.8027926 56.8980396,57.2176143 57.7666667,57.216 L57.7653333,57.2166667 Z" id="ikona-bak_copy_3" fill="#1E4A62"></path>
                            <path d="M48.504,52.4613333 C47.6981475,53.4584084 46.4866667,54.0402814 45.2046667,54.046 C43.2041168,54.0571444 41.4631621,52.6799064 41.0135699,50.7304986 C40.5639777,48.7810907 41.5259003,46.7804878 43.3292598,45.9143359 C45.1326192,45.0481841 47.2954717,45.5479605 48.5360147,47.1174755 C49.7765577,48.6869904 49.763259,50.9067946 48.504,52.4613333 Z" id="ikona-bak_copy_4" fill="#89AF4C"></path>
                        </g>
                    </g>
                </g>
            </g>
        </g>
    </g>
</svg>