<?xml version="1.0" encoding="UTF-8"?>
<svg width="90px" height="82px" viewBox="0 0 90 82" version="1.1" xmlns="http://www.w3.org/2000/svg" xmlns:xlink="http://www.w3.org/1999/xlink">
    <!-- Generator: Sketch 48.2 (47327) - http://www.bohemiancoding.com/sketch -->
    <title>dobele-piuac-ikona-talmaciba</title>
    <desc>Created with Sketch.</desc>
    <defs></defs>
    <g id="Page-1" stroke="none" stroke-width="1" fill="none" fill-rule="evenodd">
        <g id="Hero" transform="translate(-344.000000, -283.000000)">
            <g id="Izvelnes">
                <g id="Tālmācība">
                    <g id="Group-3" transform="translate(344.000000, 283.000000)">
                        <g id="dobele-piuac-ikona-talmaciba">
                            <path d="M69.2886667,81.7 L67.1006667,80.76 C83.2983614,70.9298935 91.0196685,51.555071 86.0230967,33.2785676 C81.0265249,15.0020641 64.5221856,2.25023613 45.5762916,2.02795565 C26.6303976,1.80567516 9.83142388,14.1667759 4.40743256,32.3210213 C-1.01655876,50.4752667 6.24805992,70.0259099 22.2106667,80.2333333 L20.0326667,81.1666667 C3.86138663,70.1364972 -3.18250325,49.8201415 2.69034817,31.1470444 C8.56319958,12.4739474 25.9680644,-0.153062343 45.5417717,0.0588775337 C65.115479,0.270817411 82.2428502,13.2717347 87.7099955,32.0676188 C93.1771409,50.8635029 85.6949919,71.0225738 69.2886667,81.7 Z" id="Rectangle_905_copy_10" fill="#1E4A62"></path>
                            <path d="M60.9666667,23.1066667 L60.9666667,32.0466667 L62.892,32.0466667 C64.4960505,32.0481388 65.7954035,33.3492823 65.7946667,34.9533333 L65.7946667,38.4866667 C65.7932015,40.0898062 64.495136,41.3896604 62.892,41.3933333 L60.9666667,41.3933333 L60.9666667,42.42 L62.892,42.42 C64.495136,42.4236729 65.7932015,43.7235271 65.7946667,45.3266667 L65.7946667,48.8666667 C65.7924606,50.4684189 64.4937535,51.7659328 62.892,51.7666667 L60.9666667,51.7666667 L60.9666667,52.7933333 L62.892,52.7933333 C64.495136,52.7970062 65.7932015,54.0968605 65.7946667,55.7 L65.7946667,59.24 C65.7932015,60.8431395 64.495136,62.1429938 62.892,62.1466667 L60.9666667,62.1466667 L60.9666667,63.5266667 C60.9552808,65.6775601 59.2049133,67.4133139 57.054,67.4066667 L27.9506667,67.4066667 C25.8078702,67.4051988 24.0706413,65.6694611 24.0673333,63.5266667 L24.0673333,59.82 L28.4006667,59.82 C29.8560115,59.7480598 30.9990515,58.5471218 30.9990515,57.09 C30.9990515,55.6328782 29.8560115,54.4319402 28.4006667,54.36 L24.0673333,54.36 L24.0673333,46.0266667 L28.4006667,46.0266667 C29.8826307,46.0266667 31.084,44.8252974 31.084,43.3433333 C31.084,41.8613693 29.8826307,40.66 28.4006667,40.66 L24.0673333,40.66 L24.0673333,32.24 L28.4006667,32.24 C29.8844717,32.24 31.0873333,31.0371384 31.0873333,29.5533333 C31.0873333,28.0695283 29.8844717,26.8666667 28.4006667,26.8666667 L24.0673333,26.8666667 L24.0673333,23.1066667 C24.0606902,20.9543494 25.798362,19.2032535 27.9506667,19.1933333 L57.0573333,19.1933333 C59.2051893,19.2238387 60.9383579,20.9587806 60.9666667,23.1066667 Z M61.2086667,39.1200032 L62.892,39.12 C63.0601334,39.1205335 63.2215344,39.0539788 63.3404233,38.9350899 C63.4593121,38.816201 63.5258668,38.6548001 63.5253333,38.4866667 L63.5253333,34.9533333 C63.5268108,34.6018605 63.2434691,34.3155361 62.892,34.3133333 L61.2086667,34.3133333 L61.2086667,39.1200032 Z M61.2086667,49.5 L62.892,49.5 C63.2413246,49.4989021 63.5242354,49.2159912 63.5253333,48.8666667 L63.5253333,45.3266667 C63.5258668,45.1585332 63.4593121,44.9971323 63.3404233,44.8782434 C63.2215344,44.7593545 63.0601334,44.6927999 62.892,44.6933333 L61.2086667,44.6933302 L61.2086667,49.5 Z M61.2086667,59.8733333 L62.892,59.8733333 C63.2413246,59.8722354 63.5242354,59.5893246 63.5253333,59.24 L63.5253333,55.7 C63.5242354,55.3506754 63.2413246,55.0677646 62.892,55.0666667 L61.2086667,55.0666667 L61.2086667,59.8733333 Z M26.334,23.1066667 L26.334,24.5933333 L28.3946667,24.5933333 C31.1321578,24.5933338 33.3513325,26.8125089 33.3513325,29.55 C33.3513325,32.2874911 31.1321578,34.5066662 28.3946667,34.5066667 L26.334,34.5066667 L26.334,38.3866667 L28.3946667,38.3866667 C31.1321581,38.3866667 33.3513333,40.6058419 33.3513333,43.3433333 C33.3513333,46.0808247 31.1321581,48.3 28.3946667,48.3 L26.334,48.3 L26.334,52.0866667 L28.3946667,52.0866667 C31.1579314,52.0866667 33.398,54.3267353 33.398,57.09 C33.398,59.8532647 31.1579314,62.0933333 28.3946667,62.0933333 L26.334,62.0933333 L26.334,63.5266667 C26.3365739,64.4158003 27.0588638,65.1348085 27.948,65.1333333 L57.054,65.1333333 C57.9470266,65.1324944 58.6763469,64.419447 58.6973333,63.5266667 L58.6973333,23.1066667 C58.6865847,22.2032807 57.9580238,21.4729457 57.0546667,21.46 L27.948,21.46 C27.0536139,21.4820196 26.339284,22.2120134 26.3366667,23.1066667 L26.334,23.1066667 Z M29.5526667,29.5466667 C29.5526684,30.186277 29.034942,30.7051963 28.3953333,30.7066667 L23.5533333,30.7066667 C22.912683,30.7066667 22.3933333,30.187317 22.3933333,29.5466667 C22.3933333,28.9060164 22.912683,28.3866667 23.5533333,28.3866667 L28.3953333,28.3866667 C28.7029845,28.3866667 28.998035,28.5088806 29.2155772,28.7264228 C29.4331194,28.943965 29.5553333,29.2390155 29.5553333,29.5466667 L29.5526667,29.5466667 Z M23.5526667,42.16 L28.3946667,42.16 C29.033476,42.16 29.5513333,42.6778573 29.5513333,43.3166667 C29.5513333,43.955476 29.033476,44.4733333 28.3946667,44.4733333 L23.5526667,44.4733333 C22.9138573,44.4724129 22.3967462,43.9538094 22.3976667,43.315 C22.3985871,42.6761906 22.9171906,42.1590795 23.556,42.16 L23.5526667,42.16 Z M23.5526667,55.9266667 L28.394,55.9266667 C29.0346503,55.9266667 29.554,56.4460164 29.554,57.0866667 C29.554,57.727317 29.0346503,58.2466667 28.394,58.2466667 L23.552,58.2466667 C22.9113498,58.245562 22.3928956,57.7253169 22.3940002,57.0846667 C22.3951048,56.4440164 22.9153498,55.9255622 23.556,55.9266667 L23.5526667,55.9266667 Z" id="kontakti" fill="#1E4A62"></path>
                            <path d="M50.3346667,54.4866667 C49.8984331,54.7420124 49.4007597,54.8734037 48.8953333,54.8666667 C46.0053333,54.8666667 42.3133333,50.8133333 39.936,46.8 C38.5427353,44.5243018 37.5248293,42.0391885 36.9213333,39.44 C36.2173333,35.9666667 37.228,34.5533333 38.2,33.9733333 L39.62,33.1333333 C39.9231591,32.9516397 40.266889,32.8485207 40.62,32.8333333 L40.7106667,32.8333333 C40.8890568,32.8321603 41.0668191,32.8545767 41.2393333,32.9 C41.7845331,33.0389851 42.2520281,33.3891867 42.5386667,33.8733333 L45.0206667,38.0733333 C45.6126798,39.0811745 45.2778881,40.3780078 44.272,40.9733333 L43.9053333,41.1933333 L46.756,46.0133333 L47.122,45.7933333 C47.450652,45.6005006 47.8249541,45.4992134 48.206,45.5 C48.3828536,45.4988309 48.5590733,45.5212507 48.73,45.5666667 L48.7433333,45.5666667 C49.2842785,45.7091554 49.7474257,46.0587908 50.0326667,46.54 L52.51,50.7266667 C53.1044733,51.7377351 52.771247,53.0390746 51.764,53.64 L50.3346667,54.4866667 Z M50.7526667,51.7733333 L48.2746667,47.58 C48.2612835,47.5643056 48.2437101,47.5527441 48.224,47.5466667 C48.219188,47.5416085 48.2122609,47.5391345 48.2053333,47.54 C48.1898473,47.5410611 48.1748035,47.5456198 48.1613333,47.5533333 L46.0393333,48.8133333 L41.106,40.4733333 L43.2293333,39.2133333 C43.2484436,39.2045393 43.262282,39.1872412 43.2666667,39.1666667 C43.2723921,39.146341 43.2692433,39.1245413 43.258,39.1066667 L40.78,34.92 C40.7692617,34.9008604 40.7516125,34.8865503 40.7306667,34.88 C40.7233333,34.88 40.7166667,34.8733333 40.7093333,34.8733333 C40.6966667,34.88 40.684,34.88 40.672,34.8866667 L39.2433333,35.7333333 C38.1933333,36.36 38.6273333,40.5733333 41.696,45.76 C44.448,50.4066667 47.534,52.8266667 48.896,52.8266667 C49.0360535,52.8313218 49.174614,52.7966817 49.296,52.7266667 L50.7246667,51.88 C50.7429438,51.8699609 50.7562931,51.8528529 50.7615876,51.8326834 C50.7668821,51.812514 50.7636566,51.7910551 50.7526667,51.7733333 Z" id="kontakti_copy" fill="#89AF4C"></path>
                        </g>
                    </g>
                </g>
            </g>
        </g>
    </g>
</svg>