<?xml version="1.0" encoding="UTF-8"?>
<svg width="90px" height="82px" viewBox="0 0 90 82" version="1.1" xmlns="http://www.w3.org/2000/svg" xmlns:xlink="http://www.w3.org/1999/xlink">
    <!-- Generator: Sketch 48.2 (47327) - http://www.bohemiancoding.com/sketch -->
    <title>dobele-piuac-ikona-kursi</title>
    <desc>Created with Sketch.</desc>
    <defs></defs>
    <g id="Page-1" stroke="none" stroke-width="1" fill="none" fill-rule="evenodd">
        <g id="Hero" transform="translate(-344.000000, -283.000000)">
            <g id="Izvelnes">
                <g id="Tālmācība">
                    <g id="Group-3" transform="translate(344.000000, 283.000000)">
                        <g id="dobele-piuac-ikona-kursi">
                            <path d="M69.3006667,81.69 L67.112,80.748 C83.3113871,70.9183794 91.0343381,51.5427373 86.038348,33.2648362 C81.042358,14.9869352 64.537438,2.23361815 45.590356,2.01075765 C26.643274,1.78789714 9.84294616,14.1494692 4.41841894,32.3048014 C-1.00610828,50.4601337 6.25896642,70.0120688 22.2226667,80.22 L20.0446667,81.1533333 C3.8754044,70.1222143 -3.16622433,49.8064378 2.70783565,31.1349074 C8.58189564,12.463377 25.9866687,-0.161566182 45.5592299,0.0516858313 C65.1317911,0.264937845 82.2573559,13.2661048 87.7231999,32.0611887 C93.189044,50.8562725 85.7064401,71.0138009 69.3006667,81.69 Z" id="Rectangle_905_copy_9" fill="#1E4A62"></path>
                            <path d="M28.7026667,59.6346667 L26.6193333,63.818 L26.6193333,63.8266667 L21.7813333,73.5333333 C21.548,73.9946667 21.9593333,74.4813333 22.6726667,74.6206667 C22.8079469,74.6476095 22.9454091,74.6621144 23.0833333,74.664 C23.5949286,74.7073687 24.0910229,74.4755702 24.386,74.0553333 L28.9086667,64.948 L60.5953333,64.948 L65.1186667,74.0553333 C65.4130326,74.4755692 65.9087634,74.707435 66.42,74.664 C66.5583653,74.6621138 66.6962701,74.6476093 66.832,74.6206667 C67.558,74.4726667 67.9553333,73.9853333 67.722,73.5333333 L60.8006667,59.6346667 L28.7026667,59.6346667 Z M29.8006667,63.218 L31.5826667,59.6346667 L57.9653333,59.6346667 L59.7466667,63.218 L29.7993333,63.218 L29.8006667,63.218 Z M21.1826667,59.56 C19.1653159,59.557429 17.530571,57.9226841 17.528,55.9053333 L17.528,21.8753333 C17.530571,19.8579826 19.1653159,18.2232377 21.1826667,18.2206667 L39.404,18.2206667 L39.404,17.974 C39.404,14.7055789 42.0535789,12.056 45.322,12.056 C48.5904211,12.056 51.24,14.7055789 51.24,17.974 L51.24,18.2206667 L69.4586667,18.2206667 C71.4763861,18.2228697 73.1117277,19.8576149 73.1146667,21.8753333 L73.1146667,58.42 C73.113198,59.0495156 72.6028503,59.5592672 71.9733333,59.56 L21.18,59.56 L21.1826667,59.56 Z M70.8353333,57.2793333 L70.8353333,50.8126667 L58.196,50.8126667 L58.196,57.2793333 L70.834,57.2793333 L70.8353333,57.2793333 Z M21.1826667,20.5026667 C20.4250205,20.5037682 19.8111015,21.1176872 19.81,21.8753333 L19.81,55.9053333 C19.8103669,56.6627637 20.4239036,57.276897 21.1813333,57.278 L55.9146667,57.278 L55.9146667,54.5333333 L23.696,54.5333333 C23.0663322,54.5322307 22.5563666,54.0216687 22.556,53.392 L22.556,24.392 C22.5563666,23.7623313 23.0663322,23.2517693 23.696,23.2506667 L66.946,23.2506667 C67.575776,23.2517685 68.0859328,23.7622234 68.0866667,24.392 L68.0866667,48.5306667 L70.834,48.5306667 L70.834,21.8773333 C70.832897,21.1191673 70.2181668,20.5050335 69.46,20.5046667 L21.1813333,20.5046667 L21.1826667,20.5026667 Z M55.916,52.25 L55.916,49.67 C55.9167354,49.0397036 56.4277033,48.529034 57.058,48.5286667 L65.8066667,48.5286667 L65.8066667,25.5333333 L24.8366667,25.5333333 L24.8366667,52.2533333 L55.914,52.2533333 L55.916,52.25 Z M48.96,18.2206667 L48.96,18.104 C49.0103136,16.7875192 48.3449581,15.5467043 47.2205588,14.8601336 C46.0961596,14.1735628 44.6884333,14.1485308 43.5403356,14.7946924 C42.3922379,15.4408539 41.683189,16.6572294 41.6866667,17.9746667 L41.6866539,18.2206667 L48.96,18.2206667 Z" id="ikona-bak_copy_5" fill="#1E4A62"></path>
                            <path d="M42.2953333,41.2453333 C41.4893335,42.2425889 40.2775673,42.8244815 38.9953333,42.83 C36.9948439,42.8408308 35.2541419,41.4634045 34.8047931,39.5140043 C34.3554443,37.5646042 35.3175284,35.564169 37.1209,34.6981863 C38.9242716,33.8322036 41.0870153,34.3320902 42.327457,35.9016059 C43.5678987,37.4711216 43.5545549,39.6908443 42.2953333,41.2453333 Z M46.2286667,37.2086667 C46.950223,37.2040759 47.6032746,37.6352333 47.8825268,38.3005774 C48.161779,38.9659215 48.0120637,39.734009 47.503371,40.2457672 C46.9946784,40.7575254 46.2275044,40.9118528 45.5604944,40.6366032 C44.8934845,40.3613535 44.4584112,39.7109042 44.4586667,38.9893333 C44.4560856,38.0087338 45.2487348,37.211608 46.2293333,37.2086667 L46.2286667,37.2086667 Z M50.6766667,37.2086667 C51.3972094,37.2086667 52.0467903,37.6427468 52.3224678,38.3084673 C52.5981452,38.9741878 52.4456197,39.7404233 51.9360237,40.2498286 C51.4264276,40.7592339 50.6601351,40.9114726 49.9945178,40.635546 C49.3289006,40.3596194 48.8950637,39.709876 48.8953333,38.9893333 C48.8953332,38.5168401 49.0831216,38.0637184 49.4173498,37.7297402 C49.7515781,37.3957621 50.2048402,37.2083129 50.6773333,37.2086667 L50.6766667,37.2086667 Z M55.1246667,37.2086667 C55.8461644,37.2043463 56.4990122,37.6356765 56.778054,38.3010435 C57.0570957,38.9664106 56.9072144,39.7343895 56.3984679,40.2460091 C55.8897215,40.7576288 55.1225988,40.9118328 54.4556708,40.6365425 C53.7887429,40.3612523 53.3537429,39.7108439 53.354,38.9893333 C53.3527607,38.5183084 53.5386869,38.0660832 53.8708767,37.7321431 C54.2030665,37.3982029 54.6543083,37.2099027 55.1253333,37.2086667 L55.1246667,37.2086667 Z" id="ikona-bak_copy_4" fill="#89AF4C"></path>
                        </g>
                    </g>
                </g>
            </g>
        </g>
    </g>
</svg>