<?xml version="1.0" encoding="UTF-8"?>
<svg width="90px" height="82px" viewBox="0 0 90 82" version="1.1" xmlns="http://www.w3.org/2000/svg" xmlns:xlink="http://www.w3.org/1999/xlink">
    <!-- Generator: Sketch 48.2 (47327) - http://www.bohemiancoding.com/sketch -->
    <title>dobele-piuac-ikona-projekti</title>
    <desc>Created with Sketch.</desc>
    <defs></defs>
    <g id="Page-1" stroke="none" stroke-width="1" fill="none" fill-rule="evenodd">
        <g id="Hero" transform="translate(-344.000000, -283.000000)">
            <g id="Izvelnes">
                <g id="Tālmācība">
                    <g id="Group-3" transform="translate(344.000000, 283.000000)">
                        <g id="dobele-piuac-ikona-projekti">
                            <path d="M69.3,81.7066667 L67.1113333,80.76 C83.3095993,70.9299726 91.0313788,51.554779 86.0348662,33.2777956 C81.0383536,15.0008122 64.5336661,2.24858515 45.5873248,2.02629612 C26.6409835,1.80400708 9.84164792,14.1654928 4.41769818,32.3202175 C-1.00625156,50.4749423 6.25882383,70.02597 22.222,80.2333333 L20.044,81.1666667 C3.8780183,70.1347489 -3.16047214,49.8206052 2.71473785,31.1518055 C8.58994783,12.4830058 25.9936852,-0.138987154 45.5639725,0.0755644762 C65.1342597,0.290116106 82.2570942,13.2906284 87.7216042,32.083747 C93.1861143,50.8768655 85.7039558,71.0318174 69.3,81.7066667 Z" id="Rectangle_905_copy_13" fill="#1E4A62"></path>
                            <path d="M42.9106667,67.3266667 C54.5990657,67.3130762 64.0713055,57.841731 64.086,46.1533333 C64.0860004,45.5058396 63.5614933,44.9807358 62.914,44.98 L44.0726667,44.98 L44.0726667,26.1533333 C44.0739102,25.8421132 43.9509659,25.5432519 43.731086,25.3229967 C43.5112062,25.1027414 43.2125551,24.9792874 42.9013333,24.98 C31.2076242,24.9825773 21.7300893,34.4642909 21.7326667,46.158 C21.735244,57.8517091 31.2169576,67.329244 42.9106667,67.3266667 Z M41.7386667,27.3533333 L41.7386667,46.1533333 C41.7386662,46.8008271 42.2631733,47.3259309 42.9106667,47.3266667 L61.7106667,47.3266667 C61.0834765,57.4086072 52.6165609,65.2018323 42.5172921,64.992874 C32.4180234,64.7839157 24.2807064,56.6471419 24.0710739,46.5478871 C23.8614415,36.4486323 31.6541013,27.9811965 41.736,27.3533333 L41.7386667,27.3533333 Z" id="ikona-bak_copy_12" fill="#1E4A62"></path>
                            <path d="M48.94,41.2866667 L67.1526667,41.2866667 C67.8000522,41.2859307 68.3243685,40.7607192 68.324,40.1133333 C68.3144429,29.4174377 59.6458959,20.7491891 48.95,20.74 C48.3069325,20.7388773 47.7834953,21.256955 47.778,21.9 L47.778,40.1133333 C47.773521,40.4239049 47.8941384,40.7232276 48.1127,40.9439209 C48.3312617,41.1646143 48.6293996,41.2881311 48.94,41.2866667 Z M50.1113333,23.12 C58.5981332,23.7121498 65.3515889,30.4664588 65.9426667,38.9533333 L50.1113333,38.9533333 L50.1113333,23.12 Z" id="ikona-bak_copy_14" fill="#89AF4C"></path>
                        </g>
                    </g>
                </g>
            </g>
        </g>
    </g>
</svg>