<?xml version="1.0" encoding="UTF-8"?>
<svg width="89px" height="82px" viewBox="0 0 89 82" version="1.1" xmlns="http://www.w3.org/2000/svg" xmlns:xlink="http://www.w3.org/1999/xlink">
    <!-- Generator: Sketch 48.2 (47327) - http://www.bohemiancoding.com/sketch -->
    <title>Interešu izglītība</title>
    <desc>Created with Sketch.</desc>
    <defs></defs>
    <g id="Dobele-PIUAC-home-mobile" stroke="none" stroke-width="1" fill="none" fill-rule="evenodd" transform="translate(-114.000000, -4053.000000)">
        <g id="Piuac-organizetie-kursi" transform="translate(14.000000, 3735.000000)">
            <g id="Group-2" transform="translate(100.000000, 318.000000)">
                <g id="Interešu-izglītība">
                    <g id="Dobele-PIUAC-Intereshu-izglitiba">
                        <path d="M69.0094565,81.8902174 L66.8406522,80.9608696 C82.9010592,71.2187431 90.5597009,52.0119997 85.6093018,33.8918659 C80.6589028,15.7717321 64.298468,3.12697203 45.515604,2.90398592 C26.7327401,2.6809998 10.0767269,14.9337957 4.69754699,32.931299 C-0.68163291,50.9288023 6.51887799,70.3119503 22.3434783,80.4326087 L20.1844565,81.3619565 C4.15422347,70.4283939 -2.82845166,50.2895653 2.99287367,31.7794779 C8.814199,13.2693905 26.0669353,0.75247158 45.4696953,0.962399258 C64.8724552,1.17232694 81.8503315,14.0596031 87.2698021,32.69131 C92.6892727,51.3230169 85.2725001,71.306051 69.0094565,81.8902174 L69.0094565,81.8902174 Z" id="Rectangle_905_copy_4" fill="#1E4A62"></path>
                        <path d="M57.2282609,49.8913043 C61.8206286,49.8913043 65.5434783,53.614154 65.5434783,58.2065217 C65.5434783,62.7988895 61.8206286,66.5217391 57.2282609,66.5217391 C52.6358931,66.5217391 48.9130435,62.7988895 48.9130435,58.2065217 C48.9130435,53.614154 52.6358931,49.8913043 57.2282609,49.8913043 Z M57.2282609,54.2934783 C59.3893751,54.2934783 61.1413043,56.0454075 61.1413043,58.2065217 C61.1413043,60.367636 59.3893751,62.1195652 57.2282609,62.1195652 C55.0671466,62.1195652 53.3152174,60.367636 53.3152174,58.2065217 C53.3152174,56.0454075 55.0671466,54.2934783 57.2282609,54.2934783 Z" id="Ellipse_948_copy" fill="#89AF4C"></path>
                        <path d="M70.4054348,60.6032609 C70.4069685,61.9617102 69.3654896,63.093845 68.0116304,63.2054348 C69.5108408,60.0446031 69.5954903,56.3954267 68.2444565,53.1684783 L68.2444565,29.1228261 C68.2449917,29.0026347 68.1972137,28.8872682 68.1118576,28.802648 C68.0265015,28.7180277 67.9107257,28.6712503 67.7905435,28.6728261 L54.9890217,28.6728261 C54.9007454,28.6698271 54.8131057,28.6566975 54.7278261,28.6336957 L35.0080435,28.6336957 C34.9698913,28.6336957 34.9317391,28.6434783 34.8926087,28.6434783 L22.0558696,28.6434783 C21.9345352,28.6439954 21.8183907,28.6927591 21.7330536,28.7790138 C21.6477165,28.8652685 21.6001977,28.9819279 21.6009783,29.1032609 L21.6009783,49.7543478 C21.5994913,49.793683 21.5955708,49.8328884 21.5892391,49.8717391 L21.5892391,60.5934783 C21.5919155,60.8424148 21.7942018,61.0429573 22.0431522,61.0434783 L34.8446739,61.0434783 C34.9329502,61.0464773 35.0205899,61.0596068 35.1058696,61.0826087 L45.0293478,61.0826087 C45.2216742,61.8167894 45.4837354,62.5309063 45.8119565,63.2152174 L22.0402174,63.2152174 C20.6319543,63.2149805 19.4772181,62.0987499 19.4292391,60.6913043 L19.4292391,60.6130435 L19.4292391,60.6130435 L19.4292391,29.0836957 C19.4313973,27.640901 20.6013343,26.4722771 22.0441304,26.4717391 L34.893587,26.4717391 C34.9682899,26.473243 35.0428065,26.4797795 35.1166304,26.4913043 L67.7905435,26.4913043 C69.2022735,26.4922244 70.358198,27.6139346 70.4015217,29.025 L70.4015217,29.1032609 L70.4015217,29.1032609 C70.4025669,29.106438 70.4025669,29.1098664 70.4015217,29.1130435 L70.4015217,60.6032609 L70.4054348,60.6032609 Z M48.4327174,63.498913 C47.4442993,61.9668247 46.8904634,60.1950908 46.8303261,58.3728261 L28.4918478,58.3728261 C28.1642622,58.373866 27.8497372,58.2444615 27.6177312,58.0131898 C27.3857252,57.781918 27.2553244,57.4678047 27.2553261,57.1402174 C27.2558452,56.484156 26.9956566,55.8547733 26.5320263,55.3905926 C26.068396,54.9264119 25.4393224,54.6654767 24.7832609,54.6652174 C24.4555959,54.6665188 24.140919,54.5371985 23.9088562,54.30587 C23.6767934,54.0745415 23.5464763,53.7602761 23.5467391,53.4326087 L23.5467391,53.4326087 L23.5467391,36.3326087 C23.5464763,36.0049413 23.6767934,35.6906759 23.9088562,35.4593474 C24.140919,35.2280189 24.4555959,35.0986986 24.7832609,35.1 C26.1465705,35.0925012 27.2494448,33.9883176 27.2553261,32.625 C27.2550632,32.2973326 27.3853803,31.9830672 27.6174432,31.7517387 C27.849506,31.5204102 28.1641829,31.3910899 28.4918478,31.3923913 L61.4093478,31.3923913 C61.7370128,31.3910899 62.0516896,31.5204102 62.2837525,31.7517387 C62.5158153,31.9830672 62.6461324,32.2973326 62.6458696,32.625 L62.6458696,32.625 C62.6522856,33.9884759 63.7554426,35.0925057 65.118913,35.1 C65.446578,35.0986986 65.7612549,35.2280189 65.9933177,35.4593474 C66.2253805,35.6906759 66.3556976,36.0049413 66.3554348,36.3326087 L66.3554348,54.4695652 C67.2732449,56.9363137 67.2063364,59.6616955 66.168587,62.0804348 L66.153913,62.0804348 C65.9477488,62.5566966 65.7019959,63.0148246 65.4192391,63.45 L69.723587,70.9141304 C69.9641714,71.3335624 69.9382022,71.8547455 69.6571146,72.248184 C69.376027,72.6416225 68.8913993,72.8351222 68.4166304,72.7434783 L64.3079348,71.9413043 L62.9461957,75.8934783 C62.7879014,76.3520851 62.3773154,76.6767344 61.8945652,76.725 C61.8554348,76.725 61.8163043,76.7347826 61.7761957,76.7347826 C61.3335897,76.7309364 60.9262306,76.4926276 60.7059783,76.1086957 L56.9386957,69.5934783 L53.171413,76.1086957 C52.9511607,76.4926276 52.5438016,76.7309364 52.1011957,76.7347826 C52.0620652,76.7347826 52.0219565,76.725 51.9828261,76.725 C51.5001565,76.6770812 51.0896968,76.3522295 50.9321739,75.8934783 L49.5694565,71.9413043 L45.4607609,72.7434783 C44.7912913,72.8697813 44.1449854,72.433383 44.0119565,71.7652174 C43.954913,71.4735867 44.0056644,71.1711639 44.1547826,70.9141304 L48.4327174,63.498913 Z M63.8823913,37.4086957 C62.1415364,36.9572084 60.7817939,35.5982146 60.3293478,33.8576087 L29.5718478,33.8576087 C29.1199481,35.598177 27.7604753,36.9572754 26.0197826,37.4086957 L26.0197826,52.3467391 C27.7567429,52.8046705 29.1134381,54.1609919 29.5718478,55.8978261 L47.0543478,55.8978261 C47.3359858,54.5867889 47.8786076,53.3458451 48.6498913,52.248913 L31.968587,52.248913 C31.5264708,52.2534565 31.1155147,52.0217887 30.8905218,51.6411766 C30.665529,51.2605645 30.6606811,50.7888322 30.8778044,50.4036766 C31.0949277,50.0185211 31.501036,49.7784565 31.9431522,49.773913 L51.1111957,49.773913 C55.0516855,47.0052557 60.3994029,47.4066929 63.8823913,50.7326087 L63.8823913,37.4086957 Z M61.4915217,72.5282609 L62.3201087,70.1217391 C62.5238563,69.5427954 63.1216897,69.2011763 63.723913,69.3195652 L66.2233696,69.798913 L63.7376087,65.4945652 C62.3732809,66.7578365 60.683296,67.6150262 58.8580435,67.9695652 L61.4915217,72.5282609 Z M64.5808696,58.0304348 C64.5803293,53.7953185 61.1467468,50.362466 56.9116305,50.3628261 C52.6765143,50.3631863 49.2435157,53.7966228 49.2436957,58.0317391 C49.2438758,62.2668554 52.6771663,65.7 56.9122826,65.7 C61.1476845,65.6994598 64.5808696,62.2658367 64.5808696,58.0304348 L64.5808696,58.0304348 Z M50.1534783,69.3195652 C50.7557016,69.2011763 51.353535,69.5427954 51.5572826,70.1217391 L52.3858696,72.5282609 L55.0173913,67.9793478 C53.1922564,67.6202687 51.5018745,66.7637363 50.1329348,65.5043478 L47.6540217,69.798913 L50.1534783,69.3195652 Z M56.9122826,53.1880435 C59.5865341,53.1885837 61.7540558,55.3568353 61.7536956,58.0310868 C61.7533355,60.7053383 59.5852298,62.873006 56.9109783,62.872826 C54.2367268,62.8726459 52.0689131,60.7046863 52.068913,58.0304348 C52.0681336,56.7457444 52.5781966,55.513462 53.4867018,54.6051403 C54.395207,53.6968186 55.6275924,53.1870045 56.9122826,53.1880435 L56.9122826,53.1880435 Z M56.9328261,60.3586957 C57.9004149,60.3575064 58.7719756,59.7734687 59.1409748,58.8790029 C59.509974,57.9845371 59.3037158,56.9558605 58.6184078,56.272792 C57.9330998,55.5897236 56.9037535,55.3868336 56.0105003,55.7587587 C55.1172471,56.1306838 54.5360655,57.0041516 54.5380435,57.9717391 C54.5382992,58.6064177 54.7912074,59.2148846 55.2409097,59.6627515 C55.6906121,60.1106183 56.3001083,60.3610358 56.9347826,60.3586957 L56.9328261,60.3586957 Z M57.9326087,46.1152174 L31.968587,46.1152174 C31.640922,46.1165188 31.3262451,45.9871985 31.0941823,45.75587 C30.8621195,45.5245415 30.7318024,45.2102761 30.7320652,44.8826087 L30.7320652,44.8826087 C30.732324,44.5551015 30.8628082,44.2411398 31.0947576,44.0099245 C31.3267069,43.7787092 31.6410806,43.6492207 31.968587,43.65 L57.9326087,43.65 C58.6133597,43.65 59.1652174,44.2018577 59.1652174,44.8826087 C59.1652174,45.5633597 58.6133597,46.1152174 57.9326087,46.1152174 L57.9326087,46.1152174 Z M50.0390217,39.9913043 L39.8651087,39.9913043 C39.4247398,39.9913046 39.0178221,39.7563708 38.7976376,39.3750002 C38.577453,38.9936297 38.577453,38.5237616 38.7976376,38.1423911 C39.0178221,37.7610205 39.4247398,37.5260867 39.8651087,37.526087 L50.0390217,37.526087 C50.7197727,37.526087 51.2716304,38.0779447 51.2716304,38.7586957 C51.2716304,39.4394466 50.7197727,39.9913043 50.0390217,39.9913043 L50.0390217,39.9913043 Z" id="ikonas-samazinatas-par_23_copy_5" fill="#1E4A62"></path>
                    </g>
                </g>
            </g>
        </g>
    </g>
</svg>