<?xml version="1.0" encoding="UTF-8"?>
<svg width="89px" height="82px" viewBox="0 0 89 82" version="1.1" xmlns="http://www.w3.org/2000/svg" xmlns:xlink="http://www.w3.org/1999/xlink">
    <!-- Generator: Sketch 48.2 (47327) - http://www.bohemiancoding.com/sketch -->
    <title>IT</title>
    <desc>Created with Sketch.</desc>
    <defs></defs>
    <g id="Dobele-PIUAC-home-mobile" stroke="none" stroke-width="1" fill="none" fill-rule="evenodd" transform="translate(-114.000000, -4053.000000)">
        <g id="Piuac-organizetie-kursi" transform="translate(14.000000, 3735.000000)">
            <g id="Group-2" transform="translate(100.000000, 318.000000)">
                <g id="IT">
                    <g id="Dobele-PIUAC-IT">
                        <path d="M69.0094565,81.8902174 L66.8406522,80.9608696 C82.9010592,71.2187431 90.5597009,52.0119997 85.6093018,33.8918659 C80.6589028,15.7717321 64.298468,3.12697203 45.515604,2.90398592 C26.7327401,2.6809998 10.0767269,14.9337957 4.69754699,32.931299 C-0.68163291,50.9288023 6.51887799,70.3119503 22.3434783,80.4326087 L20.1844565,81.3619565 C4.15422347,70.4283939 -2.82845166,50.2895653 2.99287367,31.7794779 C8.814199,13.2693905 26.0669353,0.75247158 45.4696953,0.962399258 C64.8724552,1.17232694 81.8503315,14.0596031 87.2698021,32.69131 C92.6892727,51.3230169 85.2725001,71.306051 69.0094565,81.8902174 L69.0094565,81.8902174 Z" id="Rectangle_905_copy_3" fill="#1E4A62"></path>
                        <path d="M67.8384783,58.5 L22.0920652,58.5 C20.6544535,58.4957601 19.4879819,57.3353958 19.4761957,55.8978261 L19.4761957,49.6956522 L19.4673913,49.6956522 L19.4673913,44.4228261 L19.4732609,44.4228261 L19.4732609,24.3684783 C19.4754197,22.9253018 20.6459523,21.7565201 22.0891304,21.7565217 L34.9376087,21.7565217 C34.9973971,21.7580843 35.0569512,21.7646287 35.1156522,21.776087 L67.8815217,21.776087 L67.8815217,21.7858696 C69.3086017,21.8072593 70.4540646,22.970586 70.4533696,24.3978261 L70.4533696,55.8880435 C70.4538906,56.5814458 70.1784673,57.246555 69.6878825,57.7365892 C69.1972976,58.2266235 68.5318795,58.5012997 67.8384783,58.5 L67.8384783,58.5 Z M68.2923913,24.4076087 C68.2929265,24.2874173 68.2451485,24.1720508 68.1597924,24.0874306 C68.0744363,24.0028103 67.9586605,23.9560329 67.8384783,23.9576087 L55.0369565,23.9576087 C54.9978261,23.9576087 54.9606522,23.9478261 54.9215217,23.9478261 L31.6741304,23.9282609 L22.1086957,23.9282609 C21.9875313,23.9290367 21.871638,23.9779145 21.7865123,24.064141 C21.7013865,24.1503675 21.6540018,24.2668792 21.6547826,24.3880435 L21.6547826,45.048913 C21.6547826,45.0684783 21.648913,45.0880435 21.6479348,45.1076087 L21.6479348,48.4923913 L68.2923913,48.4923913 L68.2923913,24.4076087 L68.2923913,24.4076087 Z M68.2923913,50.6641304 L64.8586957,50.6641304 C64.8361957,50.6641304 64.8146739,50.673913 64.7921739,50.673913 L21.6381522,50.673913 L21.6381522,55.9076087 C21.6371103,56.028851 21.6844105,56.1455136 21.7695924,56.231797 C21.8547743,56.3180804 21.9708195,56.3668754 22.0920652,56.3673913 L67.8384783,56.3673913 C67.959724,56.3668754 68.0757692,56.3180804 68.1609511,56.231797 C68.246133,56.1455136 68.2934331,56.028851 68.2923913,55.9076087 L68.2923913,50.6641304 Z M44.8757609,54.9 C44.1816356,54.9021554 43.6171377,54.3413003 43.6147993,53.6471756 C43.6124609,52.953051 44.1731673,52.3884052 44.8672913,52.3858839 C45.5614153,52.3833626 46.1262088,52.9439202 46.128913,53.6380435 C46.1300009,54.3320199 45.5697279,54.8962292 44.8757609,54.9 L44.8757609,54.9 Z M33.4477174,66.4336957 C33.4498668,65.8344974 33.9353653,65.3494359 34.5345652,65.3478261 L43.8847826,65.3478261 L43.8847826,62.55 C43.9024081,61.9627101 44.3835869,61.4957556 44.9711413,61.4957556 C45.5586957,61.4957556 46.0398745,61.9627101 46.0575,62.55 L46.0575,65.3478261 L55.4077174,65.3478261 C56.0074266,65.3478261 56.493587,65.8339865 56.493587,66.4336957 C56.493587,67.0334049 56.0074266,67.5195652 55.4077174,67.5195652 L34.5326087,67.5195652 C33.9341729,67.516883 33.4498602,67.0321337 33.4477174,66.4336957 L33.4477174,66.4336957 Z" id="ikonas-samazinatas-par_23_copy_2" fill="#1E4A62"></path>
                        <path d="M50.3491304,37.8 C51.2838119,38.7336014 51.2846876,40.2481439 50.3510864,41.1828256 C49.4174853,42.1175073 47.9029429,42.1183835 46.9682609,41.1847826 L45.9978261,40.2163043 L43.376087,44.2663043 L37.7784783,28.6141304 L53.4306522,34.2097826 L49.3777174,36.8315217 L50.3491304,37.8 Z M49.3953261,34.6793478 L40.7533696,31.5880435 L43.8436957,40.226087 L45.6965217,37.3695652 L48.24,39.9130435 C48.4723198,40.1440126 48.8478896,40.1429176 49.0788587,39.9105978 C49.3098278,39.678278 49.3087328,39.3027082 49.076413,39.0717391 L46.5329348,36.5282609 L49.3953261,34.6793478 Z" id="ikonas-samazinatas-par_23_copy_3" fill="#89AF4C"></path>
                    </g>
                </g>
            </g>
        </g>
    </g>
</svg>