<?xml version="1.0" encoding="UTF-8"?>
<svg width="89px" height="82px" viewBox="0 0 89 82" version="1.1" xmlns="http://www.w3.org/2000/svg" xmlns:xlink="http://www.w3.org/1999/xlink">
    <!-- Generator: Sketch 48.2 (47327) - http://www.bohemiancoding.com/sketch -->
    <title>Tālmācība</title>
    <desc>Created with Sketch.</desc>
    <defs></defs>
    <g id="Dobele-PIUAC-home-mobile" stroke="none" stroke-width="1" fill="none" fill-rule="evenodd" transform="translate(-114.000000, -4053.000000)">
        <g id="Piuac-organizetie-kursi" transform="translate(14.000000, 3735.000000)">
            <g id="Group-2" transform="translate(100.000000, 318.000000)">
                <g id="Tālmācība">
                    <g id="Dobele-PIUAC-Talmaciba">
                        <path d="M69.0065217,81.8902174 L66.8445652,80.9608696 C82.9052852,71.2179633 90.5637956,52.0104104 85.6129666,33.8896974 C80.6621377,15.7689843 64.3010516,3.12391678 45.5175155,2.90094229 C26.7339793,2.6779678 10.0773333,14.9310904 4.69774749,32.9291738 C-0.681838339,50.9272571 6.51856248,70.3111963 22.3434783,80.4326087 L20.1844565,81.3619565 C4.15290586,70.4287682 -2.83092645,50.2892366 2.99016654,31.7781562 C8.81125954,13.2670758 26.0646768,0.749318802 45.4683142,0.959268593 C64.8719516,1.16921838 81.8504738,14.0573692 87.2696664,32.690071 C92.688859,51.3227727 85.2708883,71.306475 69.0065217,81.8902174 Z" id="Rectangle_905_copy_5" fill="#1E4A62"></path>
                        <path d="M44.4521739,26.2369565 C44.720318,26.1195387 45.0253342,26.1195387 45.2934783,26.2369565 L44.4521739,26.2369565 Z M22.4413043,22.0597826 L35.2858696,22.0597826 C35.6738136,22.0597823 36.0322887,22.2667479 36.2262608,22.6027172 C36.4202329,22.9386865 36.4202329,23.3526178 36.2262608,23.6885872 C36.0322887,24.0245565 35.6738136,24.231522 35.2858696,24.2315217 L22.4530435,24.2315217 C22.3318791,24.2322976 22.2159858,24.2811753 22.1308601,24.3674018 C22.0457343,24.4536283 21.9983496,24.57014 21.9991304,24.6913043 L21.9991304,43.5913043 L21.9991304,43.5913043 L21.9991304,48.7956522 L68.6426087,48.7956522 L68.6426087,24.7108696 C68.6423693,24.5898912 68.5935336,24.4740818 68.5070739,24.3894618 C68.4206143,24.3048417 68.3037816,24.2585075 68.1828261,24.2608696 L55.3871739,24.2608696 C54.7874647,24.2608696 54.3013043,23.7747092 54.3013043,23.175 C54.3013043,22.5752908 54.7874647,22.0891304 55.3871739,22.0891304 L68.1828261,22.0891304 C68.877095,22.0870516 69.5436693,22.3612586 70.0355105,22.8512646 C70.5273517,23.3412705 70.8040487,24.0068151 70.8045652,24.701087 L70.8045652,56.1913043 C70.8040487,56.8855762 70.5273517,57.5511208 70.0355105,58.0411267 C69.5436693,58.5311327 68.877095,58.8053397 68.1828261,58.8032609 L22.4413043,58.8032609 C21.0038547,58.7990156 19.8376662,57.6384988 19.826413,56.201087 L19.826413,24.6717391 C19.8285712,23.2289445 20.9985082,22.0603206 22.4413043,22.0597826 L22.4413043,22.0597826 Z M21.9873913,56.2108696 C21.9866104,56.3320339 22.0339952,56.4485456 22.119121,56.5347721 C22.2042467,56.6209986 22.32014,56.6698763 22.4413043,56.6706522 L68.1847826,56.6706522 C68.3068042,56.6709126 68.4239031,56.622555 68.5101856,56.5362725 C68.5964681,56.44999 68.6448257,56.3328912 68.6445652,56.2108696 L68.6445652,50.9673913 L65.1521739,50.9673913 L65.1423913,50.9771739 L21.9873913,50.9771739 L21.9873913,56.2108696 L21.9873913,56.2108696 Z M45.225,55.2032609 C44.5307498,55.205957 43.9657621,54.6453434 43.9630625,53.9510932 C43.9603629,53.256843 44.5209736,52.6918526 45.2152238,52.6891494 C45.909474,52.6864463 46.4744673,53.2470542 46.4771739,53.9413043 C46.4784737,54.2746995 46.3472782,54.5949558 46.1124495,54.8316191 C45.8776208,55.0682824 45.5583952,55.2019661 45.225,55.2032609 L45.225,55.2032609 Z M34.8847826,65.651087 L44.2369565,65.651087 L44.2369565,62.8532609 C44.2369565,62.2535517 44.7231169,61.7673913 45.3228261,61.7673913 C45.9225353,61.7673913 46.4086957,62.2535517 46.4086957,62.8532609 L46.4086957,65.651087 L55.7608696,65.651087 C56.3605788,65.651087 56.8467391,66.1372473 56.8467391,66.7369565 C56.8467391,67.3366657 56.3605788,67.8228261 55.7608696,67.8228261 L34.8847826,67.8228261 C34.4968385,67.8228265 34.1383633,67.615861 33.9443911,67.2798916 C33.750419,66.9439222 33.750419,66.5299908 33.9443911,66.1940214 C34.1383633,65.8580521 34.4968385,65.6510866 34.8847826,65.651087 L34.8847826,65.651087 Z" id="ikonas-samazinatas-par_23_copy_6" fill="#1E4A62"></path>
                        <path d="M44.8728261,44.0902174 C39.6978261,44.0902174 35.8043478,42.0554348 35.8043478,39.3456522 L35.8043478,35.6771739 L31.8717391,33.8282609 C31.5486173,33.6762316 31.3399749,33.3537842 31.3336957,32.9967391 C31.3397228,32.6371836 31.547869,32.3117187 31.8717391,32.1554348 L44.4521739,26.2369565 C44.720318,26.1195387 45.0253342,26.1195387 45.2934783,26.2369565 L57.873913,32.1554348 C58.2006721,32.3084433 58.4101144,32.6359349 58.4119565,32.9967391 C58.4096991,33.354998 58.1997901,33.6794029 57.873913,33.8282609 L56.4945652,34.473913 L56.4945652,38.2108696 C57.1418631,38.5040648 57.5803465,39.1239903 57.6412055,39.8319834 C57.7020645,40.5399765 57.3758093,41.2256388 56.7880435,41.625 L57.8152174,44.1782609 C57.9302074,44.4691392 57.8857484,44.7988769 57.6978261,45.048913 C57.5146294,45.2970974 57.2236829,45.4425707 56.9152174,45.4402174 L54.1565217,45.4402174 C53.8480562,45.4425707 53.5571097,45.2970974 53.373913,45.048913 C53.1887198,44.7972983 53.147945,44.4673933 53.2663043,44.1782609 L54.2934783,41.625 C53.976129,41.4058613 53.7282873,41.100303 53.5793478,40.7445652 C52.4836957,42.7304348 49.1086957,44.0902174 44.8728261,44.0902174 Z M37.7217391,39.3456522 C37.7217391,39.9717391 38.4065217,40.676087 39.5608696,41.2141304 C42.9731343,42.5837258 46.7823005,42.5837258 50.1945652,41.2141304 C51.3391304,40.676087 52.0336957,39.9717391 52.0336957,39.3456522 L52.0336957,36.5771739 L45.2934783,39.7467391 C45.028193,39.8770994 44.7174592,39.8770994 44.4521739,39.7467391 L37.7217391,36.5771739 L37.7217391,39.3456522 Z M44.8728261,28.1054348 L34.4836957,32.9967391 L44.8728261,37.8782609 L51.9945652,34.5326087 L44.7945652,33.9163043 C44.5345846,33.9006483 44.2931701,33.7763909 44.1293478,33.573913 C43.9721568,33.3895299 43.8947302,33.1502113 43.9141304,32.9086957 C43.9690309,32.4230498 44.3841634,32.0587499 44.8728261,32.0673913 L44.9608696,32.0673913 L55.1445652,32.9380435 L44.8728261,28.1054348 Z M53.951087,38.6706522 C54.1296674,38.4801207 54.3419291,38.3242411 54.5771739,38.2108696 L54.5771739,35.3836957 L53.951087,35.6771739 L53.951087,38.6706522 L53.951087,38.6706522 Z" id="ikonas-samazinatas-par_23_copy_10" fill="#89AF4C"></path>
                    </g>
                </g>
            </g>
        </g>
    </g>
</svg>