<?xml version="1.0" encoding="UTF-8"?>
<svg width="89px" height="82px" viewBox="0 0 89 82" version="1.1" xmlns="http://www.w3.org/2000/svg" xmlns:xlink="http://www.w3.org/1999/xlink">
    <!-- Generator: Sketch 48.2 (47327) - http://www.bohemiancoding.com/sketch -->
    <title>Un citi</title>
    <desc>Created with Sketch.</desc>
    <defs></defs>
    <g id="Dobele-PIUAC-home-mobile" stroke="none" stroke-width="1" fill="none" fill-rule="evenodd" transform="translate(-114.000000, -4053.000000)">
        <g id="Piuac-organizetie-kursi" transform="translate(14.000000, 3735.000000)">
            <g id="Group-2" transform="translate(100.000000, 318.000000)">
                <g id="Un-citi">
                    <g id="Dobele-PIUAC-un-citi">
                        <path d="M69.0065217,81.8902174 L66.8445652,80.9608696 C82.9052852,71.2179633 90.5637956,52.0104104 85.6129666,33.8896974 C80.6621377,15.7689843 64.3010516,3.12391678 45.5175155,2.90094229 C26.7339793,2.6779678 10.0773333,14.9310904 4.69774749,32.9291738 C-0.681838339,50.9272571 6.51856248,70.3111963 22.3434783,80.4326087 L20.1815217,81.3619565 C4.14943591,70.4281734 -2.83452663,50.2877991 2.98688412,31.7760038 C8.80829487,13.2642084 26.0624156,0.745992715 45.4668304,0.955938296 C64.8712452,1.16588388 81.8504775,14.0544865 87.2699966,32.6879028 C92.6895156,51.3213191 85.2714224,71.3058707 69.0065217,81.8902174 Z" id="Rectangle_905_copy_6" fill="#1E4A62"></path>
                        <rect id="Rectangle-path" fill="#89AF4C" fill-rule="nonzero" x="21.5217391" y="39.1304348" width="13.6956522" height="14.673913"></rect>
                        <path d="M62.9413043,67.676087 L49.7836957,67.676087 C49.4848481,67.6776585 49.1977859,67.5596368 48.9864659,67.3483167 C48.7751458,67.1369967 48.6571241,66.8499345 48.6586957,66.551087 L48.6586957,60.026087 L42.4956522,60.026087 C41.875887,60.0223485 41.3743906,59.5208522 41.3706522,58.901087 L41.3706522,47.5043478 L36.2054348,47.5043478 L36.2054348,53.9413043 C36.2070063,54.2401519 36.0889846,54.5272141 35.8776645,54.7385341 C35.6663445,54.9498542 35.3792823,55.0678759 35.0804348,55.0663043 L21.9032609,55.0663043 C21.2819405,55.0663043 20.7782609,54.5626247 20.7782609,53.9413043 L20.7782609,38.8956522 C20.7782609,38.5972836 20.8967873,38.3111355 21.1077657,38.100157 C21.3187442,37.8891786 21.6048923,37.7706522 21.9032609,37.7706522 L35.0804348,37.7706522 C35.3792823,37.7690806 35.6663445,37.8871024 35.8776645,38.0984224 C36.0889846,38.3097425 36.2070063,38.5968046 36.2054348,38.8956522 L36.2054348,45.2543478 L41.3706522,45.2543478 L41.3706522,33.8576087 C41.3743906,33.2378435 41.875887,32.7363471 42.4956522,32.7326087 L48.5021739,32.7326087 L48.5021739,26.373913 C48.5021739,25.7525927 49.0058536,25.248913 49.6271739,25.248913 L62.9413043,25.248913 C63.2396729,25.248913 63.5258211,25.3674395 63.7367995,25.5784179 C63.9477779,25.7893963 64.0663043,26.0755445 64.0663043,26.373913 L64.0663043,41.351087 C64.0625659,41.9708522 63.5610696,42.4723485 62.9413043,42.476087 L49.6271739,42.476087 C49.0074087,42.4723485 48.5059124,41.9708522 48.5021739,41.351087 L48.5021739,34.9826087 L43.6206522,34.9826087 L43.6206522,57.776087 L48.6586957,57.776087 L48.6586957,51.2413043 C48.6586957,50.9429358 48.7772221,50.6567876 48.9882005,50.4458092 C49.1991789,50.2348308 49.4853271,50.1163043 49.7836957,50.1163043 L62.9413043,50.1163043 C63.5610696,50.1200428 64.0625659,50.6215391 64.0663043,51.2413043 L64.0663043,66.551087 C64.0663043,66.8494555 63.9477779,67.1356037 63.7367995,67.3465821 C63.5258211,67.5575605 63.2396729,67.676087 62.9413043,67.676087 L62.9413043,67.676087 Z M33.9554348,40.0206522 L23.0282609,40.0206522 L23.0282609,52.8163043 L33.9554348,52.8163043 L33.9554348,40.0206522 Z M50.7521739,40.226087 L61.8163043,40.226087 L61.8163043,27.498913 L50.7521739,27.498913 L50.7521739,40.226087 Z M61.8163043,52.3663043 L50.9086957,52.3663043 L50.9086957,65.426087 L61.8163043,65.426087 L61.8163043,52.3663043 Z" id="ikonas-samazinatas-par_23_copy_7" fill="#1E4A62"></path>
                    </g>
                </g>
            </g>
        </g>
    </g>
</svg>