<?xml version="1.0" encoding="UTF-8"?>
<svg width="89px" height="82px" viewBox="0 0 89 82" version="1.1" xmlns="http://www.w3.org/2000/svg" xmlns:xlink="http://www.w3.org/1999/xlink">
    <!-- Generator: Sketch 48.2 (47327) - http://www.bohemiancoding.com/sketch -->
    <title>Uzņēmējdarbība</title>
    <desc>Created with Sketch.</desc>
    <defs></defs>
    <g id="Dobele-PIUAC-home-mobile" stroke="none" stroke-width="1" fill="none" fill-rule="evenodd" transform="translate(-114.000000, -4053.000000)">
        <g id="Piuac-organizetie-kursi" transform="translate(14.000000, 3735.000000)">
            <g id="Group-2" transform="translate(100.000000, 318.000000)">
                <g id="Uzņēmējdarbība">
                    <g id="Dobele-PIUAC-UD">
                        <path d="M69.0094565,81.8902174 L66.8406522,80.9608696 C82.9010592,71.2187431 90.5597009,52.0119997 85.6093018,33.8918659 C80.6589028,15.7717321 64.298468,3.12697203 45.515604,2.90398592 C26.7327401,2.6809998 10.0767269,14.9337957 4.69754699,32.931299 C-0.68163291,50.9288023 6.51887799,70.3119503 22.3434783,80.4326087 L20.1844565,81.3619565 C4.15422347,70.4283939 -2.82845166,50.2895653 2.99287367,31.7794779 C8.814199,13.2693905 26.0669353,0.75247158 45.4696953,0.962399258 C64.8724552,1.17232694 81.8503315,14.0596031 87.2698021,32.69131 C92.6892727,51.3230169 85.2725001,71.306051 69.0094565,81.8902174 Z" id="Rectangle_905_copy_7" fill="#1E4A62"></path>
                        <path d="M62.7231522,53.276087 C60.7431522,53.1880435 58.7543478,53.2663043 56.7694565,53.2663043 C54.8041304,53.2565217 54.7796739,53.2173913 55.1328261,51.1336957 L63.9518478,51.1336957 C63.9851087,51.4173913 64.0056522,51.6326087 64.038913,51.8478261 C64.196413,52.875 63.8804348,53.325 62.7231522,53.276087 Z M57.0629348,42.5934783 C57.0296739,42.7402174 56.9719565,42.8771739 56.8780435,43.1608696 C54.8236957,41.7815217 52.8143478,40.4413043 50.666087,39.0130435 C49.9108696,40.7054348 49.1732609,42.2804348 48.513913,43.8945652 C48.4593888,44.2625827 48.508158,44.6385122 48.6547826,44.9804348 C50.5623913,52.4934783 52.4732609,60.0065217 54.3873913,67.5195652 C54.8373913,69.2902174 55.2394565,71.0804348 55.6904348,72.9684783 C55.0261957,73.1445652 54.4255435,73.301087 53.7123913,73.4869565 C52.9219565,70.4836957 52.128587,67.5293478 51.3645652,64.575 C49.7882609,58.4413043 48.2230435,52.3076087 46.668913,46.173913 C46.6794519,45.8771221 46.5649396,45.5895338 46.3532772,45.3812193 C46.1416147,45.1729048 45.8522373,45.0629918 45.5556522,45.0782609 C45.2410235,45.0524386 44.9301909,45.1611713 44.7002642,45.3774852 C44.4703375,45.593799 44.3428603,45.8974258 44.3494565,46.2130435 C42.5083696,53.4717391 40.6513043,60.7271739 38.7782609,67.9793478 C38.3126087,69.7891304 37.8097826,71.5793478 37.2961957,73.4869565 C36.6006522,73.301087 36.0293478,73.1543478 35.3396739,72.9684783 C35.7828261,71.1097826 36.1917391,69.3 36.648587,67.5 C38.5281522,60.0945652 40.4194565,52.6923913 42.3225,45.2934783 C42.5719689,44.4736609 42.4905009,43.5887501 42.0955435,42.8282609 C41.4919565,41.625 40.976413,40.3826087 40.3513043,39.0032609 C38.253913,40.4119565 36.2494565,41.7521739 34.1011957,43.2 C33.4995652,40.6565217 32.9272826,38.2695652 32.3677174,35.8826087 C31.3513043,31.548913 30.326087,27.2054348 29.3488043,22.8619565 C29.2206704,22.2516532 29.2266785,21.6207957 29.366413,21.0130435 C29.7577174,19.3402174 30.24,17.6869565 30.6929348,16.0043478 L60.3254348,16.0043478 C60.8351087,17.9315217 61.353587,19.8684783 61.8554348,21.8152174 C61.8786094,21.9996222 61.8598837,22.1868793 61.8006522,22.3630435 C60.2269565,29.1032609 58.6477174,35.8467391 57.0629348,42.5934783 Z M42.566087,38.475 C43.0923913,39.5902174 43.6059783,40.7152174 44.0471739,41.8597826 C44.2604117,42.589707 44.9583523,43.068365 45.716087,43.0043478 C46.1306467,42.8011251 46.4989402,42.5147486 46.7980435,42.1630435 C47.4231321,40.9315831 47.9825038,39.6678536 48.4738043,38.3771739 C48.563841,38.0237264 48.4778785,37.6485513 48.2429348,37.3695652 C45.7894565,35.3054348 45.716087,35.3152174 43.083587,37.1543478 C43.0254436,37.2011374 42.9639774,37.2436406 42.8996739,37.2815217 C42.6671223,37.3637213 42.4891831,37.5540402 42.4227868,37.7915871 C42.3563904,38.0291341 42.4098595,38.2841335 42.566087,38.475 Z M53.0823913,23.1652174 L37.9457609,23.1652174 C40.5626087,26.3641304 42.993587,29.3380435 45.5155435,32.4195652 C48.0443478,29.3282609 50.4880435,26.3445652 53.0823913,23.1652174 L53.0823913,23.1652174 Z M31.5440217,23.2434783 C32.4244565,26.5695652 33.1728261,29.925 33.971087,33.2706522 C34.4680435,35.3543478 34.9591304,37.4478261 35.4893478,39.6880435 C38.3879348,37.7217391 41.1319565,35.8630435 43.9747826,33.9358696 C39.9521739,29.025 36.0508696,24.2608696 32.04,19.3597826 C31.5978261,20.7782609 31.188913,21.9032609 31.5440217,23.2434783 L31.5440217,23.2434783 Z M33.7881522,18.1663043 C34.4846739,19.0173913 35.0070652,19.7413043 35.6272826,20.3771739 C35.9277349,20.6819334 36.3292409,20.8663339 36.7561957,20.8956522 C42.5983696,20.925 48.4405435,20.9282609 54.2827174,20.9054348 C54.6092176,20.9249191 54.9315256,20.8239803 55.188587,20.6217391 C55.8665217,19.8880435 56.4701087,19.0858696 57.2243478,18.1663043 L33.7881522,18.1663043 Z M59.0106522,19.3206522 C54.9567391,24.2902174 51.0466304,29.073913 47.0631522,33.9456522 C49.9343478,35.8826087 52.6940217,37.751087 55.5476087,39.6684783 C56.8936957,34.0043478 58.1536957,28.5456522 59.508587,23.1065217 C59.8363043,21.7956522 59.3579348,20.7293478 59.0106522,19.3206522 L59.0106522,19.3206522 Z" id="ikonas-samazinatas-par_23_copy_8" fill="#1E4A62"></path>
                        <polygon id="ikonas-samazinatas-par_23_copy_11" fill="#89AF4C" points="55.7608696 50.8695652 63.5869565 50.8695652 59.673913 45.9782609"></polygon>
                    </g>
                </g>
            </g>
        </g>
    </g>
</svg>