<?xml version="1.0" encoding="UTF-8"?>
<svg width="89px" height="82px" viewBox="0 0 89 82" version="1.1" xmlns="http://www.w3.org/2000/svg" xmlns:xlink="http://www.w3.org/1999/xlink">
    <!-- Generator: Sketch 48.2 (47327) - http://www.bohemiancoding.com/sketch -->
    <title>Valodas</title>
    <desc>Created with Sketch.</desc>
    <defs></defs>
    <g id="Dobele-PIUAC-home-mobile" stroke="none" stroke-width="1" fill="none" fill-rule="evenodd" transform="translate(-114.000000, -4053.000000)">
        <g id="Piuac-organizetie-kursi" transform="translate(14.000000, 3735.000000)">
            <g id="Group-2" transform="translate(100.000000, 318.000000)">
                <g id="Valodas">
                    <g id="Dobele-PIUAC-Valodas">
                        <path d="M69.0094565,81.8902174 L66.8406522,80.9608696 C82.9010592,71.2187431 90.5597009,52.0119997 85.6093018,33.8918659 C80.6589028,15.7717321 64.298468,3.12697203 45.515604,2.90398592 C26.7327401,2.6809998 10.0767269,14.9337957 4.69754699,32.931299 C-0.68163291,50.9288023 6.51887799,70.3119503 22.3434783,80.4326087 L20.1844565,81.3619565 C4.15422347,70.4283939 -2.82845166,50.2895653 2.99287367,31.7794779 C8.814199,13.2693905 26.0669353,0.75247158 45.4696953,0.962399258 C64.8724552,1.17232694 81.8503315,14.0596031 87.2698021,32.69131 C92.6892727,51.3230169 85.2725001,71.306051 69.0094565,81.8902174 L69.0094565,81.8902174 Z" id="Rectangle_905_copy_2" fill="#1E4A62"></path>
                        <path d="M69.9759783,51.0358696 L66.0433696,51.0358696 L66.0678261,56.925 C66.0718121,57.2245727 65.954566,57.5130426 65.7427174,57.7248913 C65.5308687,57.9367399 65.2423988,58.053986 64.9428261,58.05 C64.6727689,58.0527626 64.4113061,57.9551498 64.2091304,57.776087 L56.3830435,51.0358696 L42.6443478,51.0358696 C40.5324644,51.0347897 38.8208658,49.3227532 38.8203261,47.2108696 L38.8203261,27.1858696 C38.8240934,25.0753246 40.5338039,23.3651767 42.6443478,23.3608696 L69.9759783,23.3608696 C72.0862995,23.3657128 73.7956966,25.0755472 73.8,27.1858696 L73.8,47.2108696 C73.798921,49.3225297 72.0876381,51.0342505 69.9759783,51.0358696 Z M71.55,27.1858696 C71.5467848,26.3177377 70.8441079,25.6146241 69.9759783,25.6108696 L42.6443478,25.6108696 C41.7760577,25.6146203 41.0730986,26.3175794 41.0693478,27.1858696 L41.0693478,47.2108696 C41.0693478,48.080718 41.7744993,48.7858696 42.6443478,48.7858696 L56.7978261,48.7858696 C57.067304,48.7863537 57.3276559,48.8835517 57.5315217,49.0597826 L63.8080435,54.4695652 L63.7894565,49.9108696 C63.7902757,49.6137353 63.9084097,49.328948 64.1181522,49.1184783 C64.327817,48.9046786 64.6150098,48.7847209 64.9144565,48.7858696 L69.9759783,48.7858696 C70.8454447,48.7853295 71.5500002,48.0803362 71.55,47.2108696 L71.55,27.1858696 L71.55,27.1858696 Z M21.8602174,31.3826087 L35.6243478,31.3826087 C36.2353652,31.4827195 36.6839027,32.010727 36.6839027,32.6298913 C36.6839027,33.2490556 36.2353652,33.7770631 35.6243478,33.8771739 L21.8602174,33.8771739 C20.2796737,34.0142187 19.1027218,35.3960475 19.218913,36.9782609 L19.218913,53.0706522 C19.1027218,54.6528656 20.2796737,56.0346943 21.8602174,56.1717391 L24.75,56.1717391 C25.0401757,56.1757065 25.3136124,56.3083035 25.496413,56.5336957 C25.7000905,56.7817731 25.8108041,57.0931552 25.8094565,57.4141304 L25.8094565,62.1978261 L30.8484783,56.523913 C31.0318974,56.3094378 31.2990032,56.184622 31.5811957,56.1815217 L44.2858696,56.1815217 C45.4430978,56.1166931 46.4305209,55.3220339 46.7413043,54.2054348 C46.8099226,53.9174581 47.0009101,53.6738226 47.2641738,53.5384298 C47.5274376,53.403037 47.8367084,53.3893969 48.1108696,53.501087 C48.680631,53.8183416 48.935286,54.502675 48.7115217,55.1152174 L48.7115217,55.125 C48.1505548,57.1225964 46.3810593,58.542125 44.3093478,58.6565217 L32.013587,58.6565217 L25.4934783,65.9934783 C25.3110053,66.2104634 25.0441875,66.3387069 24.7607609,66.3456522 C24.6108615,66.3462678 24.4632026,66.3092689 24.3313043,66.2380435 C23.9263516,66.0066337 23.6835741,65.5693326 23.7013043,65.1032609 L23.7013043,58.6565217 L21.8602174,58.6565217 C19.241413,58.6565217 17.1107609,56.1521739 17.1107609,53.0706522 L17.1107609,36.9684783 C17.1107609,33.8869565 19.241413,31.3826087 21.8602174,31.3826087 Z" id="ikonas-samazinatas-par_23_copy_4" fill="#1E4A62"></path>
                        <path d="M51.6463043,39.2869565 C51.1265341,39.9287476 50.3454303,40.3024127 49.5195652,40.3043478 L49.5195652,40.3043478 C48.2741298,40.31095 47.1798655,39.4793906 46.8526498,38.2776906 C46.5254341,37.0759907 47.0470344,35.804441 48.1238818,35.1786995 C49.2007293,34.5529579 50.5637323,34.72939 51.4457609,35.6086957 C51.9667779,36.1185179 52.2605062,36.8166958 52.2606522,37.5456522 C52.26189,38.1794104 52.0449573,38.7942833 51.6463043,39.2869565 L51.6463043,39.2869565 Z M58.9832609,39.2869565 C58.4634906,39.9287476 57.6823868,40.3024127 56.8565217,40.3043478 L56.8565217,40.3043478 C55.6110864,40.31095 54.516822,39.4793906 54.1896063,38.2776906 C53.8623906,37.0759907 54.3839909,35.804441 55.4608383,35.1786995 C56.5376858,34.5529579 57.9006888,34.72939 58.7827174,35.6086957 C59.3037344,36.1185179 59.5974628,36.8166958 59.5976087,37.5456522 C59.5988465,38.1794104 59.3819138,38.7942833 58.9832609,39.2869565 L58.9832609,39.2869565 Z M66.3202174,39.2869565 C65.8004471,39.9287476 65.0193434,40.3024127 64.1934783,40.3043478 L64.1934783,40.3043478 C62.9480429,40.31095 61.8537786,39.4793906 61.5265629,38.2776906 C61.1993472,37.0759907 61.7209474,35.804441 62.7977949,35.1786995 C63.8746423,34.5529579 65.2376453,34.72939 66.1196739,35.6086957 C66.6406909,36.1185179 66.9344193,36.8166958 66.9345652,37.5456522 C66.935803,38.1794104 66.7188703,38.7942833 66.3202174,39.2869565 L66.3202174,39.2869565 Z" id="ikona-bak_copy_17" fill="#89AF4C"></path>
                    </g>
                </g>
            </g>
        </g>
    </g>
</svg>